<?xml version="1.0" encoding="UTF-8" standalone="no"?>
<!-- Created with Inkscape (http://www.inkscape.org/) -->

<svg
   xmlns:dc="http://purl.org/dc/elements/1.1/"
   xmlns:cc="http://creativecommons.org/ns#"
   xmlns:rdf="http://www.w3.org/1999/02/22-rdf-syntax-ns#"
   xmlns:svg="http://www.w3.org/2000/svg"
   xmlns="http://www.w3.org/2000/svg"
   xmlns:sodipodi="http://sodipodi.sourceforge.net/DTD/sodipodi-0.dtd"
   xmlns:inkscape="http://www.inkscape.org/namespaces/inkscape"
   width="120"
   height="360"
   id="svg2"
   version="1.1"
   inkscape:version="0.48.4 r9939"
   sodipodi:docname="buttons.svg"
   inkscape:export-filename="/home/cromo/projects/ludum-dare-34/art/buttons.png"
   inkscape:export-xdpi="90"
   inkscape:export-ydpi="90">
  <defs
     id="defs4" />
  <sodipodi:namedview
     id="base"
     pagecolor="#ffffff"
     bordercolor="#666666"
     borderopacity="1.0"
     inkscape:pageopacity="0.0"
     inkscape:pageshadow="2"
     inkscape:zoom="5.6568542"
     inkscape:cx="95.568116"
     inkscape:cy="288.44996"
     inkscape:document-units="px"
     inkscape:current-layer="layer1"
     showgrid="false"
     showguides="false"
     inkscape:guide-bbox="true"
     fit-margin-top="0"
     fit-margin-left="0"
     fit-margin-right="0"
     fit-margin-bottom="0"
     inkscape:snap-to-guides="true"
     inkscape:window-width="1920"
     inkscape:window-height="1056"
     inkscape:window-x="1920"
     inkscape:window-y="0"
     inkscape:window-maximized="1">
    <sodipodi:guide
       orientation="1,0"
       position="58,93.514872"
       id="guide3766" />
    <sodipodi:guide
       orientation="1,0"
       position="62,93.338095"
       id="guide3768" />
    <sodipodi:guide
       orientation="0,1"
       position="-13.965359,90"
       id="guide3770" />
    <sodipodi:guide
       orientation="0,1"
       position="-10.960155,180"
       id="guide3772" />
    <sodipodi:guide
       orientation="0,1"
       position="-8.8388348,270"
       id="guide3774" />
  </sodipodi:namedview>
  <metadata
     id="metadata7">
    <rdf:RDF>
      <cc:Work
         rdf:about="">
        <dc:format>image/svg+xml</dc:format>
        <dc:type
           rdf:resource="http://purl.org/dc/dcmitype/StillImage" />
        <dc:title></dc:title>
      </cc:Work>
    </rdf:RDF>
  </metadata>
  <g
     inkscape:label="Layer 1"
     inkscape:groupmode="layer"
     id="layer1"
     transform="translate(-168.57143,99.066373)">
    <g
       id="g3776"
       transform="translate(3.6083984e-6,0)">
      <rect
         ry="20"
         rx="20"
         y="191.71898"
         x="168.57143"
         height="67.214645"
         width="120"
         id="rect2985"
         style="fill:#848484;fill-opacity:1;stroke:none" />
      <path
         sodipodi:nodetypes="csssscc"
         inkscape:connector-curvature="0"
         id="path3764"
         d="m 230.57143,172.52608 37.99706,0 c 11.08,0 20,8.92 20,20 l 0,19.38596 c 0,11.08 -8.92,20 -20,20 l -37.99706,0 z"
         style="fill:#bcbcbc;fill-opacity:1;stroke:none" />
      <path
         sodipodi:nodetypes="csssscc"
         inkscape:connector-curvature="0"
         id="rect3755"
         d="m 226.57143,231.91204 -38,0 c -11.08,0 -20,-8.92 -20,-20 l 0,-19.38596 c 0,-11.08 8.92,-20 20,-20 l 38,0 z"
         style="fill:#bcbcbc;fill-opacity:1;stroke:none" />
    </g>
    <g
       transform="translate(3.6083984e-6,-89.999997)"
       id="g3781">
      <rect
         style="fill:#848484;fill-opacity:1;stroke:none"
         id="rect3783"
         width="120"
         height="67.214645"
         x="168.57143"
         y="191.71898"
         rx="20"
         ry="20" />
      <path
         style="fill:#bcbcbc;fill-opacity:1;stroke:none"
         d="m 230.57143,172.52608 37.99706,0 c 11.08,0 20,8.92 20,20 l 0,19.38596 c 0,11.08 -8.92,20 -20,20 l -37.99706,0 z"
         id="path3785"
         inkscape:connector-curvature="0"
         sodipodi:nodetypes="csssscc" />
      <path
         style="fill:#bcbcbc;fill-opacity:1;stroke:none"
         d="m 226.57143,241.91162 -38,0 c -11.08,0 -20,-8.92 -20,-20 l 0,-19.38596 c 0,-11.08 8.92,-20 20,-20 l 38,0 z"
         id="path3787"
         inkscape:connector-curvature="0"
         sodipodi:nodetypes="csssscc" />
    </g>
    <g
       id="g3789"
       transform="translate(3.6083984e-6,-180)">
      <rect
         ry="20"
         rx="20"
         y="191.71898"
         x="168.57143"
         height="67.214645"
         width="120"
         id="rect3791"
         style="fill:#848484;fill-opacity:1;stroke:none" />
      <path
         sodipodi:nodetypes="csssscc"
         inkscape:connector-curvature="0"
         id="path3793"
         d="m 230.57143,182.52567 37.99706,0 c 11.08,0 20,8.92 20,20 l 0,19.38596 c 0,11.08 -8.92,20 -20,20 l -37.99706,0 z"
         style="fill:#bcbcbc;fill-opacity:1;stroke:none" />
      <path
         sodipodi:nodetypes="csssscc"
         inkscape:connector-curvature="0"
         id="path3795"
         d="m 226.57143,231.91204 -38,0 c -11.08,0 -20,-8.92 -20,-20 l 0,-19.38596 c 0,-11.08 8.92,-20 20,-20 l 38,0 z"
         style="fill:#bcbcbc;fill-opacity:1;stroke:none" />
    </g>
    <g
       transform="translate(3.6083984e-6,-270)"
       id="g3797">
      <rect
         style="fill:#848484;fill-opacity:1;stroke:none"
         id="rect3799"
         width="120"
         height="67.214645"
         x="168.57143"
         y="191.71898"
         rx="20"
         ry="20" />
      <path
         style="fill:#bcbcbc;fill-opacity:1;stroke:none"
         d="m 230.57143,182.52567 37.99706,0 c 11.08,0 20,8.92 20,20 l 0,19.38596 c 0,11.08 -8.92,20 -20,20 l -37.99706,0 z"
         id="path3801"
         inkscape:connector-curvature="0"
         sodipodi:nodetypes="csssscc" />
      <path
         style="fill:#bcbcbc;fill-opacity:1;stroke:none"
         d="m 226.57143,241.91163 -38,0 c -11.08,0 -20,-8.92 -20,-20 l 0,-19.38596 c 0,-11.08 8.92,-20 20,-20 l 38,0 z"
         id="path3803"
         inkscape:connector-curvature="0"
         sodipodi:nodetypes="csssscc" />
    </g>
  </g>
</svg>
