<?xml version="1.0" encoding="UTF-8" standalone="no"?>
<!-- Created with Inkscape (http://www.inkscape.org/) -->

<svg
   xmlns:dc="http://purl.org/dc/elements/1.1/"
   xmlns:cc="http://creativecommons.org/ns#"
   xmlns:rdf="http://www.w3.org/1999/02/22-rdf-syntax-ns#"
   xmlns:svg="http://www.w3.org/2000/svg"
   xmlns="http://www.w3.org/2000/svg"
   xmlns:xlink="http://www.w3.org/1999/xlink"
   xmlns:sodipodi="http://sodipodi.sourceforge.net/DTD/sodipodi-0.dtd"
   xmlns:inkscape="http://www.inkscape.org/namespaces/inkscape"
   width="128"
   height="128"
   viewBox="0 0 128 128"
   id="svg4603"
   version="1.1"
   inkscape:version="0.48.4 r9939"
   inkscape:export-filename="/home/zeta0134/Github/ludum-dare-34/art/charge_meter_empty"
   inkscape:export-xdpi="90"
   inkscape:export-ydpi="90"
   sodipodi:docname="charge_meter.svg">
  <defs
     id="defs4605" />
  <sodipodi:namedview
     id="base"
     pagecolor="#ffffff"
     bordercolor="#666666"
     borderopacity="1.0"
     inkscape:pageopacity="0"
     inkscape:pageshadow="2"
     inkscape:zoom="4.2419723"
     inkscape:cx="82.47414"
     inkscape:cy="53.616093"
     inkscape:document-units="px"
     inkscape:current-layer="layer1"
     showgrid="false"
     units="px"
     inkscape:window-width="1920"
     inkscape:window-height="1056"
     inkscape:window-x="1920"
     inkscape:window-y="0"
     inkscape:window-maximized="1" />
  <metadata
     id="metadata4608">
    <rdf:RDF>
      <cc:Work
         rdf:about="">
        <dc:format>image/svg+xml</dc:format>
        <dc:type
           rdf:resource="http://purl.org/dc/dcmitype/StillImage" />
        <dc:title />
      </cc:Work>
    </rdf:RDF>
  </metadata>
  <g
     inkscape:label="Charge meter"
     inkscape:groupmode="layer"
     id="layer1"
     transform="translate(0,-924.3622)">
    <path
       style="fill:none;stroke:#000000;stroke-width:4.0999999;stroke-linecap:butt;stroke-linejoin:miter;stroke-miterlimit:4;stroke-opacity:1;stroke-dasharray:none"
       d="m 167.77921,931.44287 48.29546,0 0,115.90903 -47.72728,0 c 23.18295,-35.4002 25.46555,-73.69423 -0.56818,-115.90903 z"
       id="path4613"
       inkscape:connector-curvature="0"
       sodipodi:nodetypes="ccccc" />
    <path
       style="fill:none;stroke:#000000;stroke-width:3.20000005;stroke-linecap:butt;stroke-linejoin:miter;stroke-miterlimit:4;stroke-opacity:1;stroke-dasharray:none"
       d="m 186.8133,987.97696 29.26137,0"
       id="path4615"
       inkscape:connector-curvature="0" />
    <path
       style="fill:none;stroke:#000000;stroke-width:3.20000005;stroke-linecap:butt;stroke-linejoin:miter;stroke-miterlimit:4;stroke-opacity:1;stroke-dasharray:none"
       d="m 180.84739,960.13605 34.94318,0"
       id="path4617"
       inkscape:connector-curvature="0" />
    <path
       style="fill:none;stroke:#000000;stroke-width:3.20000005;stroke-linecap:butt;stroke-linejoin:miter;stroke-miterlimit:4;stroke-opacity:1;stroke-dasharray:none"
       d="m 181.69967,1018.6587 33.80681,0"
       id="path4619"
       inkscape:connector-curvature="0" />
    <path
       style="fill:#cecece;fill-opacity:1;stroke:none"
       d="m 72.856335,935.19532 c 4.484177,1.83052 13.605501,2.85585 16.202239,2.7339 9.494932,-0.4459 30.473766,2.00614 30.473766,2.00614 4.57905,0.29821 5.16543,4.74865 5.33215,7.49524 1.47183,24.24736 2.24163,38.73065 1.25536,57.494 -0.16051,3.0538 -1.54983,33.529 -5.76649,35.3303 -8.96532,3.8299 -25.332279,3.3074 -34.691701,3.8059 -9.349459,0.4979 -11.132901,0.8031 -13.656091,1.0147 -5.763016,0.4832 2.436851,-35.5816 1.612831,-54.30439 -0.74539,-16.93633 -4.297555,-57.01904 -0.762064,-55.57579 z"
       id="path17169"
       inkscape:connector-curvature="0"
       sodipodi:nodetypes="ssssssssss" />
    <path
       transform="translate(0,-0.71316094)"
       sodipodi:type="inkscape:offset"
       inkscape:radius="-5.7818542"
       inkscape:original="M 72.84375 935.1875 C 69.308259 933.74425 72.87961 973.84492 73.625 990.78125 C 74.44902 1009.504 66.236984 1045.5457 72 1045.0625 C 74.52319 1044.8509 76.306791 1044.5604 85.65625 1044.0625 C 95.015672 1043.564 111.37843 1044.0799 120.34375 1040.25 C 124.56041 1038.4487 125.96449 1007.9913 126.125 1004.9375 C 127.11127 986.17415 126.34683 971.68486 124.875 947.4375 C 124.70828 944.69091 124.1103 940.23571 119.53125 939.9375 C 119.53125 939.9375 98.557432 937.4916 89.0625 937.9375 C 86.465762 938.05945 77.327927 937.01802 72.84375 935.1875 z "
       xlink:href="#path17169"
       style="fill:#3f3f3f;fill-opacity:1;stroke:none"
       id="path17175-6"
       inkscape:href="#path17169"
       d="m 97.375,943.125 c -2.100768,-0.0577 -3.480982,0.14773 -4.90625,0.3125 10.89438,12.0098 17.37009,30.17372 18.0625,45.90625 0.4813,10.93575 -3.33072,22.05435 -8.65625,31.81245 -3.530651,6.4694 -7.739099,12.2389 -12.1875,16.9688 4.166428,-0.1284 8.491113,-0.2028 13.09375,-0.5 5.5028,-0.3553 10.56549,-1.1893 13.9375,-2.3438 0.19821,-0.5638 0.42048,-1.1639 0.65625,-2.1874 0.63286,-2.7473 1.1891,-6.6664 1.625,-10.6563 0.87179,-7.9798 1.25699,-16.1619 1.34375,-17.8125 0.96986,-18.45115 0.22073,-32.61458 -1.25,-56.84375 -0.0597,-0.98289 -0.22841,-1.72191 -0.34375,-2.09375 a 5.7824323,5.7824323 0 0 1 -0.3125,-0.0625 c 0,0 -12.03698,-2.25199 -21.0625,-2.5 z m 19.15625,92.7812 c -0.21664,0.2621 -0.13924,0.372 -0.0312,0.125 0.008,-0.019 0.0223,-0.1035 0.0312,-0.125 z" />
  </g>
  <g
     inkscape:groupmode="layer"
     id="layer8"
     inkscape:label="charged meter"
     sodipodi:insensitive="true"
     style="display:none">
    <path
       transform="translate(0,-925.07536)"
       sodipodi:type="inkscape:offset"
       inkscape:radius="-5.7818542"
       inkscape:original="M 72.84375 935.1875 C 69.308259 933.74425 72.87961 973.84492 73.625 990.78125 C 74.44902 1009.504 66.236984 1045.5457 72 1045.0625 C 74.52319 1044.8509 76.306791 1044.5604 85.65625 1044.0625 C 95.015672 1043.564 111.37843 1044.0799 120.34375 1040.25 C 124.56041 1038.4487 125.96449 1007.9913 126.125 1004.9375 C 127.11127 986.17415 126.34683 971.68486 124.875 947.4375 C 124.70828 944.69091 124.1103 940.23571 119.53125 939.9375 C 119.53125 939.9375 98.557432 937.4916 89.0625 937.9375 C 86.465762 938.05945 77.327927 937.01802 72.84375 935.1875 z "
       xlink:href="#path17169"
       style="fill:#44b1d6;fill-opacity:1;stroke:none"
       id="path17175"
       inkscape:href="#path17169"
       d="m 77.1875,942.5 c -0.08043,3.45016 -0.02502,7.98433 0.21875,13.34375 0.537783,11.82347 1.618284,26.01436 2,34.6875 0.456272,10.36705 -1.470872,24.04775 -2.6875,35.21875 -0.592912,5.4441 -0.989526,10.201 -0.96875,13.25 2.001609,-0.1906 3.04402,-0.3699 9.59375,-0.7188 4.964194,-0.2644 11.308101,-0.2604 17.4375,-0.6562 5.5028,-0.3553 10.56549,-1.1893 13.9375,-2.3438 0.19821,-0.5638 0.42048,-1.1639 0.65625,-2.1874 0.63286,-2.7473 1.1891,-6.6664 1.625,-10.6563 0.87179,-7.9798 1.25699,-16.1619 1.34375,-17.8125 0.96986,-18.45115 0.22073,-32.61458 -1.25,-56.84375 -0.0597,-0.98289 -0.22841,-1.72191 -0.34375,-2.09375 -0.22366,-0.0245 -21.342251,-2.34745 -29.40625,-1.96875 -3.191158,0.14987 -7.669759,-0.22192 -12.15625,-1.21875 z m 39.34375,93.4062 c -0.21664,0.2621 -0.13924,0.372 -0.0312,0.125 0.008,-0.019 0.0223,-0.1035 0.0312,-0.125 z" />
  </g>
  <g
     inkscape:groupmode="layer"
     id="layer7"
     inkscape:label="spedometer">
    <path
       style="fill:#cecece;fill-opacity:1;stroke:none"
       d="M 68.748146,8.4594276 C 43.476717,2.4863433 8.6313328,24.525607 2.7271696,49.813227 -3.9260637,78.309127 20.381295,117.55144 48.796752,124.54026 73.857571,130.70401 99.125938,108.34136 105.35799,83.297444 112.57162,54.308934 97.819711,15.330702 68.748146,8.4594276 z"
       id="path17172"
       inkscape:connector-curvature="0"
       sodipodi:nodetypes="sssss" />
  </g>
</svg>
