<?xml version="1.0" encoding="UTF-8" standalone="no"?>
<!-- Created with Inkscape (http://www.inkscape.org/) -->

<svg
   xmlns:dc="http://purl.org/dc/elements/1.1/"
   xmlns:cc="http://creativecommons.org/ns#"
   xmlns:rdf="http://www.w3.org/1999/02/22-rdf-syntax-ns#"
   xmlns:svg="http://www.w3.org/2000/svg"
   xmlns="http://www.w3.org/2000/svg"
   xmlns:sodipodi="http://sodipodi.sourceforge.net/DTD/sodipodi-0.dtd"
   xmlns:inkscape="http://www.inkscape.org/namespaces/inkscape"
   width="96"
   height="24"
   id="svg14356"
   version="1.1"
   inkscape:version="0.48.4 r9939"
   sodipodi:docname="coutndown-font.svg"
   inkscape:export-filename="/home/cromo/projects/ludum-dare-34/art/font.16x24.png"
   inkscape:export-xdpi="90"
   inkscape:export-ydpi="90">
  <defs
     id="defs14358" />
  <sodipodi:namedview
     id="base"
     pagecolor="#ffffff"
     bordercolor="#666666"
     borderopacity="1.0"
     inkscape:pageopacity="0.0"
     inkscape:pageshadow="2"
     inkscape:zoom="5.7799099"
     inkscape:cx="99.765432"
     inkscape:cy="-4.0019036"
     inkscape:document-units="px"
     inkscape:current-layer="layer1"
     showgrid="true"
     inkscape:snap-grids="false"
     showguides="true"
     inkscape:guide-bbox="true"
     inkscape:snap-to-guides="false"
     inkscape:window-width="1920"
     inkscape:window-height="1056"
     inkscape:window-x="1920"
     inkscape:window-y="0"
     inkscape:window-maximized="1">
    <inkscape:grid
       type="xygrid"
       id="grid14364"
       empspacing="2"
       visible="true"
       enabled="true"
       snapvisiblegridlinesonly="true"
       spacingx="8px"
       spacingy="8px"
       dotted="false" />
    <sodipodi:guide
       orientation="0,1"
       position="58.125,0.80357143"
       id="guide14914" />
    <sodipodi:guide
       orientation="0,1"
       position="-14.821429,22.321429"
       id="guide14916" />
  </sodipodi:namedview>
  <metadata
     id="metadata14361">
    <rdf:RDF>
      <cc:Work
         rdf:about="">
        <dc:format>image/svg+xml</dc:format>
        <dc:type
           rdf:resource="http://purl.org/dc/dcmitype/StillImage" />
        <dc:title></dc:title>
      </cc:Work>
    </rdf:RDF>
  </metadata>
  <g
     inkscape:label="Layer 1"
     inkscape:groupmode="layer"
     id="layer1"
     transform="translate(0,-1028.3622)">
    <path
       style="fill:#f3f3f1;fill-opacity:1;stroke:#26241e;stroke-width:1px;stroke-linecap:butt;stroke-linejoin:miter;stroke-opacity:1"
       d="m 18.526476,1034.1118 c 0.581285,-1.4453 2.7008,-1.2558 3.572517,-2.547 1.019905,-1.5107 4.063962,-1.0689 5.177032,0.2525 1.226646,1.4563 -1.458607,13.3446 -1.010153,14.7735 0.626893,1.9975 2.823085,-0.1209 4.016318,0.4987 0.936815,0.4865 0.973973,2.4807 0.163252,3.1568 -1.602499,1.3363 -12.576215,0.491 -13.05276,-0.1939 -0.480793,-0.691 -0.583688,-1.9188 0,-2.5254 1.51871,-1.5783 4.140143,0.591 4.958849,-0.4311 0.716873,-0.895 1.115825,-10.925 0.757614,-11.743 -0.62739,-1.4328 -3.017264,2.3003 -4.382434,1.5369 -0.815668,-0.4562 -0.548935,-1.9109 -0.200235,-2.778 z"
       id="path14370"
       inkscape:connector-curvature="0"
       sodipodi:nodetypes="ssssssssssss" />
    <path
       style="fill:#f3f3f1;fill-opacity:1;stroke:#26241e;stroke-width:1px;stroke-linecap:butt;stroke-linejoin:miter;stroke-opacity:1"
       d="m 32.677089,1034.7176 c -0.475919,1.3239 -0.01103,3.6001 1.354157,3.9419 2.1494,0.5383 3.543816,-4.0957 5.629694,-3.3483 1.948671,0.6982 2.499203,2.0059 1.778693,3.9457 -1.096713,2.9526 -5.964072,3.6646 -7.654351,6.3227 -0.705824,1.1099 -1.223081,2.9057 -0.392769,3.9259 1.772229,2.1777 11.335537,1.6183 13.324104,0.1244 1.11854,-0.8403 0.709028,-2.5385 -0.354423,-3.4475 -2.132068,-1.8223 -5.996868,2.0808 -6.391758,-0.6954 -0.15663,-1.1011 5.46839,-3.042 6.275005,-5.745 1.060341,-3.5531 -0.906183,-7.2931 -4.342925,-8.6886 -3.199007,-1.299 -8.057801,0.4162 -9.225427,3.6642 z"
       id="path14372"
       inkscape:connector-curvature="0"
       sodipodi:nodetypes="ssssssssssss" />
    <path
       style="fill:#f3f3f1;fill-opacity:1;stroke:#26241e;stroke-width:1px;stroke-linecap:butt;stroke-linejoin:miter;stroke-opacity:1"
       d="m 49.484523,1035.1463 c -0.101507,0.6931 1.068858,1.6625 1.761422,1.7677 1.683622,0.2558 1.856826,-2.8323 3.557198,-2.9258 1.81833,-0.1 2.971638,0.4954 2.938544,2.3162 -0.0467,2.5694 -2.990967,2.1543 -4.244563,3.5049 -0.601318,0.6478 -0.535929,1.9487 0,2.6516 1.349691,1.7701 4.306547,0.3727 4.654009,2.5713 0.275154,1.7412 -1.24293,2.4082 -2.990847,2.6364 -1.319794,0.1723 -2.732884,-1.5865 -4.055929,-1.4413 -0.97583,0.1071 -1.546279,1.6986 -1.453953,2.676 0.206638,2.1874 4.173709,2.0653 6.365756,1.9157 3.043189,-0.2077 6.713205,-1.5202 6.474077,-4.561 -0.449199,-5.7123 -4.272692,-4.6348 -4.349167,-5.6172 -0.07446,-0.9564 3.716706,-0.4025 3.493294,-4.5737 -0.171146,-3.1953 -3.649959,-5.6127 -6.84654,-5.4665 -2.325854,0.1064 -4.965922,2.242 -5.303301,4.5457 z"
       id="path14374"
       inkscape:connector-curvature="0"
       sodipodi:nodetypes="ssssssssssssssss" />
    <path
       style="color:#000000;fill:#f3f3f1;fill-opacity:1;fill-rule:nonzero;stroke:#26241e;stroke-width:1;stroke-linejoin:round;stroke-miterlimit:4;stroke-opacity:1;marker:none;visibility:visible;display:inline;overflow:visible;enable-background:accumulate"
       d="m 9.1167804,1046.9575 c 0.8599305,0.9308 -0.0114,1.9602 -0.3224301,3.2852 -0.4084704,1.7403 -2.6473516,1.0889 -3.6934022,-0.095 -0.9796206,-1.1085 -0.6713004,-2.2915 0.3224402,-3.2852 0.9937406,-0.9938 2.6574414,-1.0263 3.6933921,0.095 z"
       id="path16507"
       inkscape:connector-curvature="0"
       sodipodi:nodetypes="sssss" />
    <path
       style="fill:#f3f3f1;fill-opacity:1;stroke:#26241e;stroke-width:1px;stroke-linecap:butt;stroke-linejoin:miter;stroke-opacity:1"
       d="m 4.9374479,1031.969 c 0.5611604,-1.1329 3.232742,-1.6686 3.9285724,-0.089 1.2055507,2.7363 0.6530604,11.7863 0.2678601,11.9643 -1.4705309,0.6796 -2.8324417,0.9885 -4.0178623,0.2679 -0.3872602,-0.2354 -0.1860602,-2.3865 -0.011,-3.8642 0.18557,-1.5664 -0.0737,-4.4427 -0.4108202,-6.0686 -0.2460002,-1.1863 -0.0602,-1.5974 0.24325,-2.2101 z"
       id="path16509"
       inkscape:connector-curvature="0"
       sodipodi:nodetypes="sssssss" />
    <path
       style="fill:#f3f3f1;fill-opacity:1;stroke:#26241e;stroke-width:1px;stroke-linecap:butt;stroke-linejoin:miter;stroke-opacity:1"
       d="m 76.149074,1036.2813 c 0.96724,-0.011 2.22646,-1.3675 1.83035,-2.2921 -1.03288,-2.4109 -3.14812,-3.4416 -5.17857,-3.368 -2.69529,0.097 -5.37731,2.4202 -6.5625,4.9585 -1.9959,4.2745 -1.54003,10.6597 1.47321,14.2203 1.5891,1.8778 5.01839,1.5788 7.18751,0.5146 1.60168,-0.7859 1.27,-3.2331 1.91963,-3.1341 0.69326,0.1055 -0.98133,3.2099 0.44643,3.6486 1.5526,0.477 1.48849,0.5048 1.98727,-0.6298 0.11597,-0.2638 -0.14872,-9.0661 -0.75893,-9.4023 -1.39146,-0.7667 -5.53956,0.3637 -6.36226,0.4895 -0.98755,0.1511 -0.55883,1.868 0.17857,2.5728 1.39791,1.3359 2.58986,-0.231 2.76786,0.4209 0.18734,0.6863 -0.70779,2.286 -2.23215,3.1341 -1.44124,0.8019 -2.3599,-0.026 -3.4375,-1.3097 -1.34063,-1.5974 -1.93258,-5.727 -0.26786,-8.9813 0.88975,-1.7393 1.33722,-2.5001 3.2143,-2.3389 1.15693,0.1 2.63385,1.5048 3.79464,1.4969 z"
       id="path16528"
       inkscape:connector-curvature="0"
       sodipodi:nodetypes="ssssssssssssssssss" />
    <path
       style="fill:#f3f3f1;fill-opacity:1;stroke:#26241e;stroke-width:0.99999994px;stroke-linecap:butt;stroke-linejoin:miter;stroke-opacity:1"
       d="m 87.846025,1030.5327 c -2.08354,0.1192 -4.19838,1.8647 -5.25,3.9582 -1.70988,3.4039 -2.07562,8.239 -0.625,11.8016 0.98917,2.4295 3.31408,4.6103 5.625,4.7207 2.51677,0.1204 5.30385,-1.9439 6.46875,-4.539 1.68009,-3.743 1.27157,-9.1053 -0.71875,-12.6369 -1.13072,-2.0064 -3.4386,-3.4224 -5.5,-3.3046 z m -0.0402,4.342 c 2.00533,-0.065 3.95383,2.8634 4.03125,5.1928 0.0908,2.7338 -1.98164,6.8856 -4.3125,6.5 -2.3153,-0.383 -2.9167,-4.9031 -2.5625,-7.5894 0.2289,-1.7359 1.33303,-4.0541 2.84375,-4.1034 z"
       id="path16538"
       inkscape:connector-curvature="0"
       sodipodi:nodetypes="ssssssssssss" />
  </g>
</svg>
