<?xml version="1.0" encoding="UTF-8" standalone="no"?>
<!-- Created with Inkscape (http://www.inkscape.org/) -->

<svg
   xmlns:dc="http://purl.org/dc/elements/1.1/"
   xmlns:cc="http://creativecommons.org/ns#"
   xmlns:rdf="http://www.w3.org/1999/02/22-rdf-syntax-ns#"
   xmlns:svg="http://www.w3.org/2000/svg"
   xmlns="http://www.w3.org/2000/svg"
   xmlns:sodipodi="http://sodipodi.sourceforge.net/DTD/sodipodi-0.dtd"
   xmlns:inkscape="http://www.inkscape.org/namespaces/inkscape"
   width="1920"
   height="1080"
   id="svg3830"
   version="1.1"
   inkscape:version="0.48.4 r9939"
   sodipodi:docname="exit.svg"
   inkscape:export-filename="/home/cromo/projects/ludum-dare-34/art/exit.png"
   inkscape:export-xdpi="90"
   inkscape:export-ydpi="90">
  <defs
     id="defs3832" />
  <sodipodi:namedview
     id="base"
     pagecolor="#ffffff"
     bordercolor="#666666"
     borderopacity="1.0"
     inkscape:pageopacity="0.0"
     inkscape:pageshadow="2"
     inkscape:zoom="0.70710678"
     inkscape:cx="960.84762"
     inkscape:cy="575.07323"
     inkscape:document-units="px"
     inkscape:current-layer="layer1"
     showgrid="false"
     showguides="true"
     inkscape:guide-bbox="true"
     inkscape:snap-to-guides="false"
     borderlayer="true"
     inkscape:window-width="1920"
     inkscape:window-height="1056"
     inkscape:window-x="1920"
     inkscape:window-y="0"
     inkscape:window-maximized="1">
    <sodipodi:guide
       orientation="1,0"
       position="960,-3.9852399"
       id="guide3840" />
    <sodipodi:guide
       orientation="0,1"
       position="2355.8397,837.8824"
       id="guide4537" />
    <sodipodi:guide
       orientation="0,1"
       position="2305.1159,240.46849"
       id="guide4539" />
    <sodipodi:guide
       orientation="1,0"
       position="548.56874,-131.50621"
       id="guide4543" />
    <sodipodi:guide
       orientation="1,0"
       position="1363.9072,-202.89529"
       id="guide4545" />
  </sodipodi:namedview>
  <metadata
     id="metadata3835">
    <rdf:RDF>
      <cc:Work
         rdf:about="">
        <dc:format>image/svg+xml</dc:format>
        <dc:type
           rdf:resource="http://purl.org/dc/dcmitype/StillImage" />
        <dc:title></dc:title>
      </cc:Work>
    </rdf:RDF>
  </metadata>
  <g
     inkscape:label="Layer 1"
     inkscape:groupmode="layer"
     id="layer1"
     transform="translate(0,27.637817)">
    <path
       style="fill:#9de8f7;stroke:none;stroke-width:1px;stroke-linecap:butt;stroke-linejoin:miter;stroke-opacity:1;fill-opacity:1"
       d="M -140.89951,-54.71069 -178.47271,642.2722 2066.5261,621.60694 1998.8943,-58.46801 z"
       id="path4354"
       inkscape:connector-curvature="0"
       transform="translate(0,-27.637817)" />
    <path
       style="fill:#8d8e42;fill-opacity:1;stroke:none"
       d="M -76.953563,560.73062 C -76.953563,560.73062 643.39483,540 960,540 c 316.6052,0 1034.8991,17.9956 1034.8991,17.9956 l 38.9016,597.724 -2130.77487,-31.882 z"
       id="path3842"
       inkscape:connector-curvature="0"
       sodipodi:nodetypes="cscccc"
       transform="translate(0,-27.637817)" />
    <g
       id="g4621"
       transform="matrix(1.5600818,-0.32820781,0.32820781,1.5600818,-399.46058,297.7436)">
      <path
         sodipodi:nodetypes="ccccccc"
         transform="translate(0,-27.637817)"
         inkscape:connector-curvature="0"
         id="path4588"
         d="m 853.30379,434.54165 c 5.36223,2.76128 10.72177,4.14196 16.084,6.23382 l 206.82871,1.06066 c 3.2193,-0.25571 6.4092,-0.40876 9.8553,-1.4584 l -13.0373,-21.16902 -213.89976,3.53554 z"
         style="fill:#855639;fill-opacity:1;stroke:none" />
      <path
         sodipodi:nodetypes="cssssssssc"
         inkscape:connector-curvature="0"
         id="path4586"
         d="m 858.6066,384.34137 c 0,0 -0.58273,100.0428 23.98916,157.47985 3.39373,7.93287 14.17415,136.99341 18.59536,142.92501 12.17382,16.33266 29.52293,-91.71069 45.30561,-85.51229 8.77243,3.44523 6.80717,2.43886 18.10987,3.10743 10.68618,0.63211 14.55997,0.15461 22.99014,-1.05493 26.97946,-3.87094 32.84146,84.34121 46.95596,84.97755 11.0903,0.5 28.2001,-139.40895 30.5224,-144.51535 27.6752,-60.85447 10.6993,-179.89844 8.5818,-181.26513 -21.5419,-13.90371 -153.5809,-3.97296 -215.0503,23.85786 z"
         style="fill:#ad742b;fill-opacity:1;stroke:none" />
      <path
         sodipodi:nodetypes="ssssssssssssssssssss"
         transform="translate(0,-27.637817)"
         inkscape:connector-curvature="0"
         id="path4584"
         d="m 946.02423,304.62044 c -2.19224,9.33505 8.65021,17.99998 11.39463,23.38051 2.67815,5.25061 1.89786,18.05499 -4.9544,22.32138 -5.32533,3.31568 -13.84587,8.51108 -30.52703,10.06014 -22.32164,2.07285 -45.19076,11.14366 -64.96687,24.10281 -12.52369,8.20669 -13.48178,23.2034 -13.90291,28.19061 -0.30119,3.56683 8.14429,21.89752 10.61002,21.98958 9.52129,0.35548 0.22619,-7.30827 17.37258,-13.95836 11.23485,-4.35735 24.43705,-6.86033 36.7601,-7.87814 41.44542,-3.42316 70.80368,-0.41175 112.17595,0.58736 17.422,0.42073 38.4951,6.4643 50.9426,13.4121 12.0557,6.7291 5.5287,13.25631 15.0503,13.4939 2.389,0.0596 10.0103,-19.05535 10.6447,-27.75736 0.7939,-10.89098 -9.4701,-23.75807 -16.565,-29.00862 -20.079,-14.85912 -53.6432,-24.39734 -60.0389,-24.54434 -14.6723,-0.33724 -21.92186,-4.91303 -25.07025,-9.86125 -5.10914,-8.02987 -2.64246,-14.38569 1.56163,-18.72301 4.15582,-4.28755 8.76362,-10.42059 -0.0715,-14.0591 -8.97995,-3.69817 -23.45198,10.61665 -24.25973,7.54125 -6.83672,-26.02979 -25.39437,-22.53229 -26.15592,-19.28946 z"
         style="fill:#9a6342;fill-opacity:1;stroke:none" />
      <path
         sodipodi:nodetypes="sssss"
         inkscape:connector-curvature="0"
         id="path4590"
         d="m 908.38913,425.89753 c 11.27531,-4.48212 27.91565,3.95655 33.22651,14.86604 7.53651,15.48138 3.71904,44.28783 -12.47975,50.1249 -14.23495,5.12942 -32.4894,-12.35059 -36.54249,-26.92855 -3.67959,-13.23462 3.0307,-32.98807 15.79573,-38.06239 z"
         style="fill:#7e551f;fill-opacity:1;stroke:none" />
      <path
         sodipodi:nodetypes="ssssss"
         inkscape:connector-curvature="0"
         id="path4592"
         d="m 990.46839,414.36754 c -17.63652,4.05279 -27.47881,34.59231 -19.30824,50.73895 3.67759,7.26764 1.07785,31.76656 10.74871,37.27179 8.13717,4.63216 28.31994,-9.00115 34.89614,-9.82103 15.683,-1.95525 12.0692,-31.98595 6.8743,-46.9121 -4.9983,-14.36201 -18.3903,-34.68333 -33.21091,-31.27761 z"
         style="fill:#7e551f;fill-opacity:1;stroke:none" />
      <path
         sodipodi:nodetypes="sssss"
         inkscape:connector-curvature="0"
         id="path4594"
         d="m 950.63805,524.23497 c -5.29428,0.6654 -14.92765,0.88216 -15.0953,6.21546 -0.21476,6.83199 9.95814,8.64079 16.74103,9.48618 7.85719,0.9793 15.98031,0.24733 15.72339,-7.66649 -0.2733,-8.41841 -9.01202,-9.08548 -17.36912,-8.03515 z"
         style="fill:#7e551f;fill-opacity:1;stroke:none" />
      <path
         sodipodi:nodetypes="sssssscsssss"
         transform="translate(0,-27.637817)"
         inkscape:connector-curvature="0"
         id="path4596"
         d="m 901.5,699.5 c 1.58309,-0.36563 1.03998,8.029 3.5,8.09099 7.67923,0.19351 22.28427,-87.89904 28,-92.09099 2.60003,-1.90688 5.352,2.12412 13.13759,4.48279 11.39133,3.45103 35.0147,1.93837 39.89384,1.33562 3.49911,-0.43227 5.65384,-5.44169 8.34357,-4.31841 5.01119,2.09276 11.375,22.875 11.375,22.875 -3.625,-3.70833 -10.12485,-11.49744 -16.5,-10.625 -16.42984,2.24841 -29.77291,2.43283 -42.10355,-1.30806 -13.32899,-4.04377 -34.36652,85.55382 -40.89645,86.55806 -4.84359,0.7449 -6.74147,-4.16269 -7.125,-9.25 -0.20203,-2.67981 0.48539,-5.31357 2.375,-5.75 z"
         style="fill:#a56e29;fill-opacity:1;stroke:none" />
      <path
         sodipodi:nodetypes="ssssss"
         transform="translate(0,-27.637817)"
         inkscape:connector-curvature="0"
         id="path4598"
         d="m 1061.0137,582.55038 c 3.5406,2.11494 -16.6352,124.99871 -24.5479,130.78075 -5.4072,3.95114 -11.5406,-10.81115 -9.7462,-13.19868 2.8294,-3.76487 5.283,9.4959 9.1918,6.86872 4.4217,-2.97191 12.1358,-79.95254 18.1163,-109.79158 1.3104,-6.53813 2.2034,-17.51605 6.986,-14.65921 z"
         style="fill:#a56e29;fill-opacity:1;stroke:none" />
      <path
         sodipodi:nodetypes="ssssssssssssssssss"
         transform="translate(0,-27.637817)"
         inkscape:connector-curvature="0"
         id="path4619"
         d="m 843.23223,412.81098 c 1.33474,-4.97001 13.85982,-8.36792 17.64905,-9.62164 24.9645,-8.25985 52.60683,-7.61105 78.86872,-8.93934 31.96998,-1.61699 65.9185,-3.68206 97.5026,1.52773 17.4764,2.88274 32.4389,4.60856 48.8938,10.88864 4.4732,1.70718 10.1123,1.79786 10.415,6.57614 0.3466,5.47196 -8.3146,26.74115 -10.3739,27.19499 -1.3801,0.30416 -4.0216,-0.22341 -5.3964,-1.81484 -1.5279,-1.76851 -1.7773,-4.69961 -2.9585,-5.63154 -3.5655,-2.81319 -6.0615,-3.91269 -9.2949,-5.85724 -14.6564,-8.81426 -32.0648,-11.76863 -49.1465,-12.61611 -28.50439,-1.41422 -92.04245,-1.22162 -118.84831,-0.16422 -4.6489,0.18339 -21.67155,2.77129 -31.57322,7.17678 -3.92975,1.74844 -5.9141,4.07389 -8.73223,7.32322 -0.11037,0.12725 -0.29258,0.2348 -0.35929,0.42487 -0.62171,1.77146 -0.67576,3.25134 -1.48203,4.29322 -1.75785,2.27156 -4.87916,1.47796 -5.64612,0.55336 -1.16651,-1.40627 -10.56807,-17.40313 -9.51777,-21.31402 z"
         style="fill:#855639;fill-opacity:1;stroke:none" />
    </g>
    <path
       style="fill:#7a7b39;fill-opacity:1;stroke:none"
       d="m 686.43476,712.03544 c -6.10056,0.19795 -21.95897,38.68543 -32.74216,68.64883 2.66206,-26.54408 1.78234,-58.68912 -1.8987,-59.28187 -1.67146,-0.26915 -5.35906,6.37219 -6.66658,16.75082 -1.24788,9.90534 -3.08583,21.5603 -4.93664,32.74215 -9.27796,-21.83974 -21.16639,-43.07956 -29.95738,-43.07956 -3.88831,0 -13.02883,8.60449 -21.89843,19.53559 -9.572,-10.18968 -17.19506,-17.15045 -18.64953,-15.69598 -1.73087,1.73088 3.27969,12.72554 10.67496,26.32874 -9.6307,13.93667 -16.46955,28.50873 -11.39224,33.58603 2.34938,2.34939 8.67063,-11.01924 16.45546,-24.47223 13.53239,23.714 31.08765,50.79136 33.88138,52.40433 4.419,2.55131 5.58895,-1.39177 11.10186,-0.75247 5.44241,0.63115 9.32788,-2.81339 13.49571,0.0868 6.88933,4.7941 23.52924,10.7515 21.94186,5.89759 -1.44574,-4.42083 1.13308,-17.23295 4.47251,-32.57339 6.39181,-11.04661 13.32012,-21.25678 20.84359,-16.70862 6.00878,3.63249 33.86821,34.30705 38.3117,30.46371 2.9879,-2.58435 -27.85013,-32.65002 -36.87712,-39.36654 -4.93213,-3.66974 -10.78001,-2.70805 -16.53985,0.88606 6.6022,-27.56201 13.40218,-54.53587 10.80154,-55.35787 -0.14145,-0.0447 -0.26777,-0.0471 -0.42194,-0.0421 z m -77.38288,29.873 c 2.01168,0 16.79619,35.47729 22.53133,58.56458 -7.31326,-11.34991 -23.47538,-31.34646 -37.51002,-46.91917 4.95233,-6.72327 10.09206,-11.64541 14.97869,-11.64541 z"
       id="path4632"
       inkscape:connector-curvature="0"
       sodipodi:nodetypes="ccsscscscscsssscssscccsccs" />
    <g
       id="g4649"
       transform="matrix(0.61099457,0,0,0.61099457,-15.258532,145.46387)">
      <path
         sodipodi:nodetypes="ssssss"
         transform="translate(0,-27.637817)"
         inkscape:connector-curvature="0"
         id="path4643"
         d="m 393,786 c -1.49612,3.19021 25.79676,11.6911 33,23 6.27087,9.84511 3.64374,30.62185 6,34.5 1.61672,2.66095 8.28027,5.52926 9,2.5 1.50396,-6.33004 -1.27038,-28.2872 -9.27297,-39.26256 C 422.36515,793.89784 396.41579,778.71646 393,786 z"
         style="fill:#7a7b39;fill-opacity:1;stroke:none" />
      <path
         sodipodi:nodetypes="ssssss"
         transform="translate(0,-27.637817)"
         inkscape:connector-curvature="0"
         id="path4645"
         d="m 448.18198,846.14645 c -0.52021,-15.21472 -3.97383,-29.86201 -1.06066,-45.08579 C 449.58184,788.2024 455.3553,760.72044 459.5,763.5 c 4.17026,2.79671 -5.43418,37.05676 -6,40 -1.6499,8.58224 4.43494,23.04554 -0.5,46 -0.59861,2.78438 -4.7207,-0.50722 -4.81802,-3.35355 z"
         style="fill:#7a7b39;fill-opacity:1;stroke:none" />
      <path
         sodipodi:nodetypes="ssssss"
         transform="translate(0,-27.637817)"
         inkscape:connector-curvature="0"
         id="path4647"
         d="m 461.5,846 c -0.01,2.83332 6.88316,2.32672 8.5,0 2.80609,-4.03812 0.3298,-23.98535 6,-34 4.13283,-7.29937 22.32894,-14.24261 19,-16.5 -3.1133,-2.11117 -18.10999,5.17161 -24.17157,12.76777 C 462.50551,818.69775 461.52655,838.47897 461.5,846 z"
         style="fill:#7a7b39;fill-opacity:1;stroke:none" />
    </g>
    <path
       style="fill:#c0eefe;fill-opacity:1;stroke:none"
       d="m -26.870058,280.20158 c 0,0 109.682735,-53.85281 165.462998,-42.4264 95.50971,19.56487 139.90347,146.00678 231.93102,178.19091 75.21305,26.30372 163.53163,29.79844 239.00209,4.24264 52.43863,-17.75676 110.83062,-56.3075 123.03662,-110.30866 11.3413,-50.17566 -15.66793,-106.85796 -60.81122,-131.52186 -39.56299,-21.61513 -98.11139,-11.2613 -134.35029,15.55635 -42.59218,31.51923 -70.06524,89.59835 -53.74012,140.00714 28.32178,87.45214 137.64664,127.15769 227.68839,145.664 83.79121,17.22164 254.55836,-32.52692 254.55836,-32.52692 0,0 -166.69795,24.96911 -246.07305,4.24264 -76.038,-19.85508 -174.09164,-45.9757 -203.64678,-118.79393 -14.53849,-35.82006 2.0633,-86.21647 31.1127,-111.72288 27.55298,-24.19251 76.21444,-32.18348 108.89444,-15.55634 31.38776,15.96967 56.80074,58.8869 49.49747,93.33809 -9.81743,46.31122 -67.15047,71.73095 -111.72287,87.68124 -60.82089,21.76484 -132.59651,25.0627 -193.74726,4.24264 C 299.93453,356.36511 253.80659,215.34419 148.49243,203.83405 82.058227,196.57323 -26.870058,280.20158 -26.870058,280.20158 z"
       id="path4654"
       inkscape:connector-curvature="0"
       sodipodi:nodetypes="csssssssscssssssssc" />
  </g>
</svg>
