<?xml version="1.0" encoding="UTF-8" standalone="no"?>
<!-- Created with Inkscape (http://www.inkscape.org/) -->

<svg
   xmlns:dc="http://purl.org/dc/elements/1.1/"
   xmlns:cc="http://creativecommons.org/ns#"
   xmlns:rdf="http://www.w3.org/1999/02/22-rdf-syntax-ns#"
   xmlns:svg="http://www.w3.org/2000/svg"
   xmlns="http://www.w3.org/2000/svg"
   xmlns:sodipodi="http://sodipodi.sourceforge.net/DTD/sodipodi-0.dtd"
   xmlns:inkscape="http://www.inkscape.org/namespaces/inkscape"
   width="256"
   height="24"
   id="svg14356"
   version="1.1"
   inkscape:version="0.48.4 r9939"
   sodipodi:docname="font.svg"
   inkscape:export-filename="/home/cromo/projects/ludum-dare-34/art/font.16x24.png"
   inkscape:export-xdpi="90"
   inkscape:export-ydpi="90">
  <defs
     id="defs14358" />
  <sodipodi:namedview
     id="base"
     pagecolor="#ffffff"
     bordercolor="#666666"
     borderopacity="1.0"
     inkscape:pageopacity="0.0"
     inkscape:pageshadow="2"
     inkscape:zoom="11.2"
     inkscape:cx="188.2432"
     inkscape:cy="10.303101"
     inkscape:document-units="px"
     inkscape:current-layer="layer1"
     showgrid="true"
     inkscape:snap-grids="false"
     showguides="true"
     inkscape:guide-bbox="true"
     inkscape:snap-to-guides="false"
     inkscape:window-width="1920"
     inkscape:window-height="1056"
     inkscape:window-x="1920"
     inkscape:window-y="0"
     inkscape:window-maximized="1">
    <inkscape:grid
       type="xygrid"
       id="grid14364"
       empspacing="2"
       visible="true"
       enabled="true"
       snapvisiblegridlinesonly="true"
       spacingx="8px"
       spacingy="8px"
       dotted="false" />
    <sodipodi:guide
       orientation="0,1"
       position="58.125,0.80357143"
       id="guide14914" />
    <sodipodi:guide
       orientation="0,1"
       position="-14.821429,22.321429"
       id="guide14916" />
  </sodipodi:namedview>
  <metadata
     id="metadata14361">
    <rdf:RDF>
      <cc:Work
         rdf:about="">
        <dc:format>image/svg+xml</dc:format>
        <dc:type
           rdf:resource="http://purl.org/dc/dcmitype/StillImage" />
        <dc:title></dc:title>
      </cc:Work>
    </rdf:RDF>
  </metadata>
  <g
     inkscape:label="Layer 1"
     inkscape:groupmode="layer"
     id="layer1"
     transform="translate(0,-1028.3622)">
    <path
       style="fill:#ffffff;fill-opacity:1;stroke:#000000;stroke-width:0.99999994000000003px;stroke-linecap:butt;stroke-linejoin:miter;stroke-opacity:1"
       d="m 8.5880192,1030.5006 c -4.1334478,0.071 -6.7984063,5.9466 -6.9179604,10.0686 -0.1155267,3.9831 1.8127977,10.3329 5.8056234,10.4579 4.5229528,0.1416 7.0820428,-6.1198 7.0155328,-10.633 -0.05648,-3.8325 -2.06122,-9.9592 -5.9031958,-9.8935 z m -0.507381,4.9151 c 1.7753644,-0.1967 2.6176528,3.3699 2.4588498,5.5234 -0.216491,2.9358 -0.6193467,4.7707 -2.7710858,5.0561 -2.10844,0.2797 -2.9022376,-1.99 -2.7662086,-4.7057 0.2472102,-4.9354 1.6684976,-5.7176 3.0784446,-5.8738 z"
       id="path14366"
       inkscape:connector-curvature="0"
       sodipodi:nodetypes="ssssssssss" />
    <path
       style="fill:#ffffff;stroke:#000000;stroke-width:1px;stroke-linecap:butt;stroke-linejoin:miter;stroke-opacity:1;fill-opacity:1"
       d="m 18.526476,1034.1118 c 0.581285,-1.4453 2.7008,-1.2558 3.572517,-2.547 1.019905,-1.5107 4.063962,-1.0689 5.177032,0.2525 1.226646,1.4563 -1.458607,13.3446 -1.010153,14.7735 0.626893,1.9975 2.823085,-0.1209 4.016318,0.4987 0.936815,0.4865 0.973973,2.4807 0.163252,3.1568 -1.602499,1.3363 -12.576215,0.491 -13.05276,-0.1939 -0.480793,-0.691 -0.583688,-1.9188 0,-2.5254 1.51871,-1.5783 4.140143,0.591 4.958849,-0.4311 0.716873,-0.895 1.115825,-10.925 0.757614,-11.743 -0.62739,-1.4328 -3.017264,2.3003 -4.382434,1.5369 -0.815668,-0.4562 -0.548935,-1.9109 -0.200235,-2.778 z"
       id="path14370"
       inkscape:connector-curvature="0"
       sodipodi:nodetypes="ssssssssssss" />
    <path
       style="fill:#ffffff;stroke:#000000;stroke-width:1px;stroke-linecap:butt;stroke-linejoin:miter;stroke-opacity:1;fill-opacity:1"
       d="m 32.677089,1034.7176 c -0.475919,1.3239 -0.01103,3.6001 1.354157,3.9419 2.1494,0.5383 3.543816,-4.0957 5.629694,-3.3483 1.948671,0.6982 2.499203,2.0059 1.778693,3.9457 -1.096713,2.9526 -5.964072,3.6646 -7.654351,6.3227 -0.705824,1.1099 -1.223081,2.9057 -0.392769,3.9259 1.772229,2.1777 11.335537,1.6183 13.324104,0.1244 1.11854,-0.8403 0.709028,-2.5385 -0.354423,-3.4475 -2.132068,-1.8223 -5.996868,2.0808 -6.391758,-0.6954 -0.15663,-1.1011 5.46839,-3.042 6.275005,-5.745 1.060341,-3.5531 -0.906183,-7.2931 -4.342925,-8.6886 -3.199007,-1.299 -8.057801,0.4162 -9.225427,3.6642 z"
       id="path14372"
       inkscape:connector-curvature="0"
       sodipodi:nodetypes="ssssssssssss" />
    <path
       style="fill:#ffffff;stroke:#000000;stroke-width:1px;stroke-linecap:butt;stroke-linejoin:miter;stroke-opacity:1;fill-opacity:1"
       d="m 49.484523,1035.1463 c -0.101507,0.6931 1.068858,1.6625 1.761422,1.7677 1.683622,0.2558 1.856826,-2.8323 3.557198,-2.9258 1.81833,-0.1 2.971638,0.4954 2.938544,2.3162 -0.0467,2.5694 -2.990967,2.1543 -4.244563,3.5049 -0.601318,0.6478 -0.535929,1.9487 0,2.6516 1.349691,1.7701 4.306547,0.3727 4.654009,2.5713 0.275154,1.7412 -1.24293,2.4082 -2.990847,2.6364 -1.319794,0.1723 -2.732884,-1.5865 -4.055929,-1.4413 -0.97583,0.1071 -1.546279,1.6986 -1.453953,2.676 0.206638,2.1874 4.173709,2.0653 6.365756,1.9157 3.043189,-0.2077 6.713205,-1.5202 6.474077,-4.561 -0.449199,-5.7123 -4.272692,-4.6348 -4.349167,-5.6172 -0.07446,-0.9564 3.716706,-0.4025 3.493294,-4.5737 -0.171146,-3.1953 -3.649959,-5.6127 -6.84654,-5.4665 -2.325854,0.1064 -4.965922,2.242 -5.303301,4.5457 z"
       id="path14374"
       inkscape:connector-curvature="0"
       sodipodi:nodetypes="ssssssssssssssss" />
    <path
       style="fill:#ffffff;stroke:#000000;stroke-width:1px;stroke-linecap:butt;stroke-linejoin:miter;stroke-opacity:1;fill-opacity:1"
       d="m 75.09459,1030.9013 c -0.53058,-0.642 -1.78293,-0.3776 -2.78403,0.055 -0.8892,0.3847 -5.600006,3.5304 -7.118126,5.5636 -0.659578,0.8834 -0.59616,4.1782 0.0728,4.9325 1.35969,1.5334 6.223176,-0.621 7.256516,0.362 1.08084,1.0279 -0.72169,7.4851 0.2169,8.3172 1.10255,0.9774 3.92209,1.0635 4.41427,0.2821 0.96208,-1.5277 -1.60031,-7.5946 -0.62413,-8.7418 0.83355,-0.9797 1.043654,-0.3321 2.268664,-0.7275 1.11533,-0.36 0.90963,-2.58 0.36037,-3.3041 -1.00358,-1.3233 -1.862694,0.3186 -3.130654,-0.7549 -0.68868,-0.583 0.19528,-4.6195 -0.93256,-5.9845 z m -2.882229,4.0593 c 0.89832,0.2978 0.92402,2.6186 0.42377,3.2437 -0.40054,0.5004 -3.76196,0.8751 -3.9905,-0.141 -0.27224,-1.2105 2.75138,-3.373 3.56673,-3.1027 z"
       id="path14378"
       inkscape:connector-curvature="0"
       sodipodi:nodetypes="sssssssssssssssss" />
    <path
       style="fill:#ffffff;stroke:#000000;stroke-width:1px;stroke-linecap:butt;stroke-linejoin:miter;stroke-opacity:1;fill-opacity:1"
       d="m 93.058988,1031.2424 c -1.50732,-1.335 -9.07087,-0.7863 -10.54701,0.4381 -1.02218,0.848 -0.5021,7.9779 0.14649,8.4706 1.20962,0.919 2.95202,0.4694 4.54107,0.2191 2.28726,-0.3603 3.85946,1.2048 3.66216,3.5051 -0.19273,2.247 -2.29492,3.2387 -4.46782,2.9209 -1.32924,-0.1944 -2.51095,-1.661 -3.80865,-1.3145 -0.93621,0.2501 -1.96258,2.5064 -1.6846,3.4322 0.56749,1.8897 5.51365,2.1883 7.47081,1.8985 3.67104,-0.5435 6.3251,-2.9872 6.88484,-6.645 0.53841,-3.5185 -2.12487,-6.4156 -5.20026,-6.7911 -0.98853,-0.1208 -3.16641,0.2525 -3.88188,-0.4381 -0.64014,-0.618 -0.33889,-2.1964 0.43946,-2.6289 1.33902,-0.7438 5.64528,0.695 6.59187,-0.4381 0.56335,-0.6743 0.51163,-2.046 -0.14648,-2.6288 z"
       id="path14382"
       inkscape:connector-curvature="0"
       sodipodi:nodetypes="sssssssssssssss" />
    <path
       style="fill:#ffffff;stroke:#000000;stroke-width:1px;stroke-linecap:butt;stroke-linejoin:miter;stroke-opacity:1;fill-opacity:1"
       d="m 104.08254,1030.5855 c -2.08975,-0.058 -6.72371,4.5416 -7.09866,10.7183 -0.24498,4.0358 2.39267,9.0989 6.4453,9.452 3.52864,0.3074 7.50023,-3.8672 7.59532,-7.3863 0.0724,-2.6799 -2.20345,-6.849 -6.21439,-6.3352 -1.96786,0.252 -1.7675,1.3028 -2.5469,0.5011 -0.37706,-0.3878 3.46878,-2.874 3.77941,-4.1902 0.25873,-1.0962 -0.82758,-2.7276 -1.96008,-2.7597 z m 0.32668,9.8147 c 1.26518,-0.1551 2.33404,0.9221 2.62505,2.8956 0.2028,1.3751 -1.30146,3.0863 -2.95173,3.2598 -0.9759,0.1026 -2.7594,-0.7418 -2.70754,-2.8515 0.0465,-1.8903 1.2156,-3.0808 3.03422,-3.3039 z"
       id="path14384"
       inkscape:connector-curvature="0"
       sodipodi:nodetypes="sssssssssssss" />
    <path
       style="fill:#ffffff;stroke:#000000;stroke-width:1px;stroke-linecap:butt;stroke-linejoin:miter;stroke-opacity:1;fill-opacity:1"
       d="m 113.38576,1037.8767 c 0.55898,0.628 1.60741,0.5194 2.14222,-0.1405 0.66823,-0.8244 -0.18365,-2.4501 0.56375,-3.1612 0.7782,-0.7403 6.58016,-0.9399 7.04682,0.1405 0.61263,1.4183 -8.56539,13.1416 -8.11793,15.3144 0.20955,1.0175 2.35568,1.2613 3.49521,0.3512 0.68924,-0.5505 9.51956,-16.0948 8.68169,-17.9136 -1.01677,-2.207 -12.2976,-2.3122 -13.64264,-0.7025 -1.02298,1.2243 -0.9571,5.2265 -0.16912,6.1117 z"
       id="path14388"
       inkscape:connector-curvature="0"
       sodipodi:nodetypes="sssssssss" />
    <path
       style="fill:#ffffff;stroke:#000000;stroke-width:1px;stroke-linecap:butt;stroke-linejoin:miter;stroke-opacity:1;fill-opacity:1"
       d="m 136.18391,1030.6444 c -3.24892,0.1179 -6.36486,1.8046 -6.25408,5.0392 0.11006,3.2133 3.24421,3.0983 3.22493,4.0538 -0.0214,1.059 -3.75735,1.1678 -3.78675,5.8288 -0.0207,3.2737 2.85178,5.5079 6.13611,5.3438 3.87163,-0.1934 7.65027,-2.0813 7.29704,-5.9244 -0.48723,-5.3012 -3.33726,-3.8251 -3.38569,-5.2512 -0.0256,-0.7516 2.44205,-1.4199 2.56427,-4.1963 0.1453,-3.3008 -2.47918,-5.014 -5.79583,-4.8937 z m -0.86025,2.8519 c 1.55621,-0.1893 2.69109,0.9934 2.87387,2.4608 0.22412,1.7993 -0.99439,2.0674 -2.2382,2.0432 -1.03485,-0.02 -2.26727,-0.533 -2.42169,-2.1606 -0.13594,-1.4329 0.79792,-2.2232 1.78602,-2.3434 z m 0.67979,8.4913 c 2.31732,0.038 3.08651,1.5351 3.09844,3.064 0.0138,1.7672 -1.09016,2.8741 -3.17684,2.858 -1.79646,-0.014 -2.68687,-1.7455 -2.68583,-2.7965 0.002,-1.8967 1.17578,-3.1515 2.76423,-3.1255 z"
       id="path14390"
       inkscape:connector-curvature="0"
       sodipodi:nodetypes="sssssssssssssssssss" />
    <path
       style="fill:#ffffff;stroke:#000000;stroke-width:1px;stroke-linecap:butt;stroke-linejoin:miter;stroke-opacity:1;fill-opacity:1"
       d="m 156.8041,1031.4352 c -1.78232,-1.4949 -4.11216,-0.6967 -6.57491,-0.2003 -2.65961,0.536 -4.50511,3.4513 -4.37216,6.1487 0.13371,2.7131 2.75049,5.3475 5.47354,5.1625 1.70443,-0.1164 2.49484,-1.4083 3.25055,-0.8797 0.85888,0.6008 -1.84841,7.6953 -0.43996,8.6418 1.1414,0.7668 2.61572,0.7905 3.68605,-0.072 1.00713,-0.8115 0.6406,-17.4056 -1.02311,-18.8009 z m -5.40416,2.9382 c 0.96846,-0.3064 2.60474,0.5878 2.66443,2.1967 0.06,1.6166 -0.49984,1.9496 -2.07535,2.3476 -1.0665,0.2692 -2.15115,-0.9691 -2.36914,-2.0424 -0.28398,-1.3983 0.414,-2.0698 1.78006,-2.5019 z"
       id="path14396"
       inkscape:connector-curvature="0"
       sodipodi:nodetypes="sssssssssssss" />
    <g
       id="g14923"
       transform="translate(-83.482154,0)"
       style="fill:#ffffff;fill-opacity:1">
      <path
         sodipodi:nodetypes="sssss"
         inkscape:connector-curvature="0"
         id="path14918"
         d="m 262.23214,15.205358 c 0.13591,4.360701 -1.27221,6.304479 -4.51284,7.111606 -4.12199,1.026643 -6.2108,-3.250819 -5.98214,-7.901785 0.21414,-4.355754 1.20899,-7.1116073 4.51284,-7.1116073 3.30385,0 5.77224,1.1672146 5.98214,7.9017863 z"
         style="color:#000000;fill:#ffffff;fill-opacity:1;fill-rule:nonzero;stroke:#000000;stroke-width:2.63345551000000011;stroke-linejoin:round;stroke-miterlimit:4;stroke-opacity:1;marker:none;visibility:visible;display:inline;overflow:visible;enable-background:accumulate"
         transform="matrix(0.42537314,0,0,0.33898306,142.29277,1031.1365)" />
      <path
         style="color:#000000;fill:#ffffff;fill-opacity:1;fill-rule:nonzero;stroke:#000000;stroke-width:1;stroke-linejoin:round;stroke-miterlimit:4;stroke-opacity:1;marker:none;visibility:visible;display:inline;overflow:visible;enable-background:accumulate"
         d="m 253.10266,1043.0231 c 1.02369,1.068 1.49222,2.3621 0.47516,3.3319 -1.2937,1.2336 -2.82102,1.7358 -3.58398,0.3527 -0.71451,-1.2953 -1.30444,-3.3822 -0.11801,-4.1355 1.18643,-0.7533 2.19564,-0.625 3.22683,0.4509 z"
         id="path14921"
         inkscape:connector-curvature="0"
         sodipodi:nodetypes="sssss" />
    </g>
    <path
       style="fill:#ffffff;stroke:#000000;stroke-width:1px;stroke-linecap:butt;stroke-linejoin:miter;stroke-opacity:1;fill-opacity:1"
       d="m 186.07427,1031.0303 c 0.44143,-0.2795 4.19841,-0.9045 4.64868,-0.093 0.36466,0.6573 -8.00894,18.8062 -8.83249,19.5954 -0.57185,0.5478 -3.49286,0.6658 -3.90488,0 -0.59935,-0.9687 7.74916,-19.2876 8.08869,-19.5025 z"
       id="path14929"
       inkscape:connector-curvature="0"
       sodipodi:nodetypes="sssss" />
    <path
       sodipodi:nodetypes="sssss"
       inkscape:connector-curvature="0"
       id="path14952"
       d="m 202.68489,1048.8388 c 0.0559,1.4782 -1.17252,1.8214 -2.55099,2.095 -1.75339,0.348 -2.64191,-1.102 -2.54465,-2.6786 0.0911,-1.4765 1.14563,-2.095 2.551,-2.095 1.40536,0 2.48691,1.1533 2.54464,2.6786 z"
       style="color:#000000;fill:#ffffff;fill-opacity:1;fill-rule:nonzero;stroke:#000000;stroke-width:1;stroke-linejoin:round;stroke-miterlimit:4;stroke-opacity:1;marker:none;visibility:visible;display:inline;overflow:visible;enable-background:accumulate" />
  </g>
</svg>
