<?xml version="1.0" encoding="UTF-8" standalone="no"?>
<!-- Created with Inkscape (http://www.inkscape.org/) -->

<svg
   xmlns:dc="http://purl.org/dc/elements/1.1/"
   xmlns:cc="http://creativecommons.org/ns#"
   xmlns:rdf="http://www.w3.org/1999/02/22-rdf-syntax-ns#"
   xmlns:svg="http://www.w3.org/2000/svg"
   xmlns="http://www.w3.org/2000/svg"
   xmlns:sodipodi="http://sodipodi.sourceforge.net/DTD/sodipodi-0.dtd"
   xmlns:inkscape="http://www.inkscape.org/namespaces/inkscape"
   width="512"
   height="24"
   id="svg14356"
   version="1.1"
   inkscape:version="0.48.4 r9939"
   sodipodi:docname="font.svg"
   inkscape:export-filename="/home/cromo/projects/ludum-dare-34/art/font.16x24.png"
   inkscape:export-xdpi="90"
   inkscape:export-ydpi="90">
  <defs
     id="defs14358" />
  <sodipodi:namedview
     id="base"
     pagecolor="#ffffff"
     bordercolor="#666666"
     borderopacity="1.0"
     inkscape:pageopacity="0.0"
     inkscape:pageshadow="2"
     inkscape:zoom="2.0435067"
     inkscape:cx="299.27968"
     inkscape:cy="20.89774"
     inkscape:document-units="px"
     inkscape:current-layer="layer1"
     showgrid="false"
     inkscape:snap-grids="false"
     showguides="false"
     inkscape:guide-bbox="true"
     inkscape:snap-to-guides="false"
     inkscape:window-width="1920"
     inkscape:window-height="1056"
     inkscape:window-x="1920"
     inkscape:window-y="0"
     inkscape:window-maximized="1">
    <inkscape:grid
       type="xygrid"
       id="grid14364"
       empspacing="2"
       visible="true"
       enabled="true"
       snapvisiblegridlinesonly="true"
       spacingx="8px"
       spacingy="8px"
       dotted="false" />
    <sodipodi:guide
       orientation="0,1"
       position="58.125,0.80357143"
       id="guide14914" />
    <sodipodi:guide
       orientation="0,1"
       position="-14.821429,22.321429"
       id="guide14916" />
  </sodipodi:namedview>
  <metadata
     id="metadata14361">
    <rdf:RDF>
      <cc:Work
         rdf:about="">
        <dc:format>image/svg+xml</dc:format>
        <dc:type
           rdf:resource="http://purl.org/dc/dcmitype/StillImage" />
        <dc:title></dc:title>
      </cc:Work>
    </rdf:RDF>
  </metadata>
  <g
     inkscape:label="Layer 1"
     inkscape:groupmode="layer"
     id="layer1"
     transform="translate(0,-1028.3622)">
    <path
       style="fill:#f3f3f1;fill-opacity:1;stroke:#26241e;stroke-width:0.99999994000000003px;stroke-linecap:butt;stroke-linejoin:miter;stroke-opacity:1"
       d="m 8.5880192,1030.5006 c -4.1334478,0.071 -6.7984063,5.9466 -6.9179604,10.0686 -0.1155267,3.9831 1.8127977,10.3329 5.8056234,10.4579 4.5229528,0.1416 7.0820428,-6.1198 7.0155328,-10.633 -0.05648,-3.8325 -2.06122,-9.9592 -5.9031958,-9.8935 z m -0.507381,4.9151 c 1.7753644,-0.1967 2.6176528,3.3699 2.4588498,5.5234 -0.216491,2.9358 -0.6193467,4.7707 -2.7710858,5.0561 -2.10844,0.2797 -2.9022376,-1.99 -2.7662086,-4.7057 0.2472102,-4.9354 1.6684976,-5.7176 3.0784446,-5.8738 z"
       id="path14366"
       inkscape:connector-curvature="0"
       sodipodi:nodetypes="ssssssssss" />
    <path
       style="fill:#f3f3f1;fill-opacity:1;stroke:#26241e;stroke-width:1px;stroke-linecap:butt;stroke-linejoin:miter;stroke-opacity:1"
       d="m 18.526476,1034.1118 c 0.581285,-1.4453 2.7008,-1.2558 3.572517,-2.547 1.019905,-1.5107 4.063962,-1.0689 5.177032,0.2525 1.226646,1.4563 -1.458607,13.3446 -1.010153,14.7735 0.626893,1.9975 2.823085,-0.1209 4.016318,0.4987 0.936815,0.4865 0.973973,2.4807 0.163252,3.1568 -1.602499,1.3363 -12.576215,0.491 -13.05276,-0.1939 -0.480793,-0.691 -0.583688,-1.9188 0,-2.5254 1.51871,-1.5783 4.140143,0.591 4.958849,-0.4311 0.716873,-0.895 1.115825,-10.925 0.757614,-11.743 -0.62739,-1.4328 -3.017264,2.3003 -4.382434,1.5369 -0.815668,-0.4562 -0.548935,-1.9109 -0.200235,-2.778 z"
       id="path14370"
       inkscape:connector-curvature="0"
       sodipodi:nodetypes="ssssssssssss" />
    <path
       style="fill:#f3f3f1;fill-opacity:1;stroke:#26241e;stroke-width:1px;stroke-linecap:butt;stroke-linejoin:miter;stroke-opacity:1"
       d="m 32.677089,1034.7176 c -0.475919,1.3239 -0.01103,3.6001 1.354157,3.9419 2.1494,0.5383 3.543816,-4.0957 5.629694,-3.3483 1.948671,0.6982 2.499203,2.0059 1.778693,3.9457 -1.096713,2.9526 -5.964072,3.6646 -7.654351,6.3227 -0.705824,1.1099 -1.223081,2.9057 -0.392769,3.9259 1.772229,2.1777 11.335537,1.6183 13.324104,0.1244 1.11854,-0.8403 0.709028,-2.5385 -0.354423,-3.4475 -2.132068,-1.8223 -5.996868,2.0808 -6.391758,-0.6954 -0.15663,-1.1011 5.46839,-3.042 6.275005,-5.745 1.060341,-3.5531 -0.906183,-7.2931 -4.342925,-8.6886 -3.199007,-1.299 -8.057801,0.4162 -9.225427,3.6642 z"
       id="path14372"
       inkscape:connector-curvature="0"
       sodipodi:nodetypes="ssssssssssss" />
    <path
       style="fill:#f3f3f1;fill-opacity:1;stroke:#26241e;stroke-width:1px;stroke-linecap:butt;stroke-linejoin:miter;stroke-opacity:1"
       d="m 49.484523,1035.1463 c -0.101507,0.6931 1.068858,1.6625 1.761422,1.7677 1.683622,0.2558 1.856826,-2.8323 3.557198,-2.9258 1.81833,-0.1 2.971638,0.4954 2.938544,2.3162 -0.0467,2.5694 -2.990967,2.1543 -4.244563,3.5049 -0.601318,0.6478 -0.535929,1.9487 0,2.6516 1.349691,1.7701 4.306547,0.3727 4.654009,2.5713 0.275154,1.7412 -1.24293,2.4082 -2.990847,2.6364 -1.319794,0.1723 -2.732884,-1.5865 -4.055929,-1.4413 -0.97583,0.1071 -1.546279,1.6986 -1.453953,2.676 0.206638,2.1874 4.173709,2.0653 6.365756,1.9157 3.043189,-0.2077 6.713205,-1.5202 6.474077,-4.561 -0.449199,-5.7123 -4.272692,-4.6348 -4.349167,-5.6172 -0.07446,-0.9564 3.716706,-0.4025 3.493294,-4.5737 -0.171146,-3.1953 -3.649959,-5.6127 -6.84654,-5.4665 -2.325854,0.1064 -4.965922,2.242 -5.303301,4.5457 z"
       id="path14374"
       inkscape:connector-curvature="0"
       sodipodi:nodetypes="ssssssssssssssss" />
    <path
       style="fill:#f3f3f1;fill-opacity:1;stroke:#26241e;stroke-width:1px;stroke-linecap:butt;stroke-linejoin:miter;stroke-opacity:1"
       d="m 75.09459,1030.9013 c -0.53058,-0.642 -1.78293,-0.3776 -2.78403,0.055 -0.8892,0.3847 -5.600006,3.5304 -7.118126,5.5636 -0.659578,0.8834 -0.59616,4.1782 0.0728,4.9325 1.35969,1.5334 6.223176,-0.621 7.256516,0.362 1.08084,1.0279 -0.72169,7.4851 0.2169,8.3172 1.10255,0.9774 3.92209,1.0635 4.41427,0.2821 0.96208,-1.5277 -1.60031,-7.5946 -0.62413,-8.7418 0.83355,-0.9797 1.043654,-0.3321 2.268664,-0.7275 1.11533,-0.36 0.90963,-2.58 0.36037,-3.3041 -1.00358,-1.3233 -1.862694,0.3186 -3.130654,-0.7549 -0.68868,-0.583 0.19528,-4.6195 -0.93256,-5.9845 z m -2.882229,4.0593 c 0.89832,0.2978 0.92402,2.6186 0.42377,3.2437 -0.40054,0.5004 -3.76196,0.8751 -3.9905,-0.141 -0.27224,-1.2105 2.75138,-3.373 3.56673,-3.1027 z"
       id="path14378"
       inkscape:connector-curvature="0"
       sodipodi:nodetypes="sssssssssssssssss" />
    <path
       style="fill:#f3f3f1;fill-opacity:1;stroke:#26241e;stroke-width:1px;stroke-linecap:butt;stroke-linejoin:miter;stroke-opacity:1"
       d="m 93.058988,1031.2424 c -1.50732,-1.335 -9.07087,-0.7863 -10.54701,0.4381 -1.02218,0.848 -0.5021,7.9779 0.14649,8.4706 1.20962,0.919 2.95202,0.4694 4.54107,0.2191 2.28726,-0.3603 3.85946,1.2048 3.66216,3.5051 -0.19273,2.247 -2.29492,3.2387 -4.46782,2.9209 -1.32924,-0.1944 -2.51095,-1.661 -3.80865,-1.3145 -0.93621,0.2501 -1.96258,2.5064 -1.6846,3.4322 0.56749,1.8897 5.51365,2.1883 7.47081,1.8985 3.67104,-0.5435 6.3251,-2.9872 6.88484,-6.645 0.53841,-3.5185 -2.12487,-6.4156 -5.20026,-6.7911 -0.98853,-0.1208 -3.16641,0.2525 -3.88188,-0.4381 -0.64014,-0.618 -0.33889,-2.1964 0.43946,-2.6289 1.33902,-0.7438 5.64528,0.695 6.59187,-0.4381 0.56335,-0.6743 0.51163,-2.046 -0.14648,-2.6288 z"
       id="path14382"
       inkscape:connector-curvature="0"
       sodipodi:nodetypes="sssssssssssssss" />
    <path
       style="fill:#f3f3f1;fill-opacity:1;stroke:#26241e;stroke-width:1px;stroke-linecap:butt;stroke-linejoin:miter;stroke-opacity:1"
       d="m 104.08254,1030.5855 c -2.08975,-0.058 -6.72371,4.5416 -7.09866,10.7183 -0.24498,4.0358 2.39267,9.0989 6.4453,9.452 3.52864,0.3074 7.50023,-3.8672 7.59532,-7.3863 0.0724,-2.6799 -2.20345,-6.849 -6.21439,-6.3352 -1.96786,0.252 -1.7675,1.3028 -2.5469,0.5011 -0.37706,-0.3878 3.46878,-2.874 3.77941,-4.1902 0.25873,-1.0962 -0.82758,-2.7276 -1.96008,-2.7597 z m 0.32668,9.8147 c 1.26518,-0.1551 2.33404,0.9221 2.62505,2.8956 0.2028,1.3751 -1.30146,3.0863 -2.95173,3.2598 -0.9759,0.1026 -2.7594,-0.7418 -2.70754,-2.8515 0.0465,-1.8903 1.2156,-3.0808 3.03422,-3.3039 z"
       id="path14384"
       inkscape:connector-curvature="0"
       sodipodi:nodetypes="sssssssssssss" />
    <path
       style="fill:#f3f3f1;fill-opacity:1;stroke:#26241e;stroke-width:1px;stroke-linecap:butt;stroke-linejoin:miter;stroke-opacity:1"
       d="m 113.38576,1037.8767 c 0.55898,0.628 1.60741,0.5194 2.14222,-0.1405 0.66823,-0.8244 -0.18365,-2.4501 0.56375,-3.1612 0.7782,-0.7403 6.58016,-0.9399 7.04682,0.1405 0.61263,1.4183 -8.56539,13.1416 -8.11793,15.3144 0.20955,1.0175 2.35568,1.2613 3.49521,0.3512 0.68924,-0.5505 9.51956,-16.0948 8.68169,-17.9136 -1.01677,-2.207 -12.2976,-2.3122 -13.64264,-0.7025 -1.02298,1.2243 -0.9571,5.2265 -0.16912,6.1117 z"
       id="path14388"
       inkscape:connector-curvature="0"
       sodipodi:nodetypes="sssssssss" />
    <path
       style="fill:#f3f3f1;fill-opacity:1;stroke:#26241e;stroke-width:1px;stroke-linecap:butt;stroke-linejoin:miter;stroke-opacity:1"
       d="m 136.18391,1030.6444 c -3.24892,0.1179 -6.36486,1.8046 -6.25408,5.0392 0.11006,3.2133 3.24421,3.0983 3.22493,4.0538 -0.0214,1.059 -3.75735,1.1678 -3.78675,5.8288 -0.0207,3.2737 2.85178,5.5079 6.13611,5.3438 3.87163,-0.1934 7.65027,-2.0813 7.29704,-5.9244 -0.48723,-5.3012 -3.33726,-3.8251 -3.38569,-5.2512 -0.0256,-0.7516 2.44205,-1.4199 2.56427,-4.1963 0.1453,-3.3008 -2.47918,-5.014 -5.79583,-4.8937 z m -0.86025,2.8519 c 1.55621,-0.1893 2.69109,0.9934 2.87387,2.4608 0.22412,1.7993 -0.99439,2.0674 -2.2382,2.0432 -1.03485,-0.02 -2.26727,-0.533 -2.42169,-2.1606 -0.13594,-1.4329 0.79792,-2.2232 1.78602,-2.3434 z m 0.67979,8.4913 c 2.31732,0.038 3.08651,1.5351 3.09844,3.064 0.0138,1.7672 -1.09016,2.8741 -3.17684,2.858 -1.79646,-0.014 -2.68687,-1.7455 -2.68583,-2.7965 0.002,-1.8967 1.17578,-3.1515 2.76423,-3.1255 z"
       id="path14390"
       inkscape:connector-curvature="0"
       sodipodi:nodetypes="sssssssssssssssssss" />
    <path
       style="fill:#f3f3f1;fill-opacity:1;stroke:#26241e;stroke-width:1px;stroke-linecap:butt;stroke-linejoin:miter;stroke-opacity:1"
       d="m 156.8041,1031.4352 c -1.78232,-1.4949 -4.11216,-0.6967 -6.57491,-0.2003 -2.65961,0.536 -4.50511,3.4513 -4.37216,6.1487 0.13371,2.7131 2.75049,5.3475 5.47354,5.1625 1.70443,-0.1164 2.49484,-1.4083 3.25055,-0.8797 0.85888,0.6008 -1.84841,7.6953 -0.43996,8.6418 1.1414,0.7668 2.61572,0.7905 3.68605,-0.072 1.00713,-0.8115 0.6406,-17.4056 -1.02311,-18.8009 z m -5.40416,2.9382 c 0.96846,-0.3064 2.60474,0.5878 2.66443,2.1967 0.06,1.6166 -0.49984,1.9496 -2.07535,2.3476 -1.0665,0.2692 -2.15115,-0.9691 -2.36914,-2.0424 -0.28398,-1.3983 0.414,-2.0698 1.78006,-2.5019 z"
       id="path14396"
       inkscape:connector-curvature="0"
       sodipodi:nodetypes="sssssssssssss" />
    <g
       id="g14923"
       transform="translate(-83.482154,0)"
       style="fill:#f3f3f1;fill-opacity:1;stroke:#26241e;stroke-opacity:1">
      <path
         sodipodi:nodetypes="sssss"
         inkscape:connector-curvature="0"
         id="path14918"
         d="m 262.23214,15.205358 c 0.13591,4.360701 -1.27221,6.304479 -4.51284,7.111606 -4.12199,1.026643 -6.2108,-3.250819 -5.98214,-7.901785 0.21414,-4.355754 1.20899,-7.1116073 4.51284,-7.1116073 3.30385,0 5.77224,1.1672146 5.98214,7.9017863 z"
         style="color:#000000;fill:#f3f3f1;fill-opacity:1;fill-rule:nonzero;stroke:#26241e;stroke-width:2.63345551000000011;stroke-linejoin:round;stroke-miterlimit:4;stroke-opacity:1;marker:none;visibility:visible;display:inline;overflow:visible;enable-background:accumulate"
         transform="matrix(0.42537314,0,0,0.33898306,142.29277,1031.1365)" />
      <path
         style="color:#000000;fill:#f3f3f1;fill-opacity:1;fill-rule:nonzero;stroke:#26241e;stroke-width:1;stroke-linejoin:round;stroke-miterlimit:4;stroke-opacity:1;marker:none;visibility:visible;display:inline;overflow:visible;enable-background:accumulate"
         d="m 253.10266,1043.0231 c 1.02369,1.068 1.49222,2.3621 0.47516,3.3319 -1.2937,1.2336 -2.82102,1.7358 -3.58398,0.3527 -0.71451,-1.2953 -1.30444,-3.3822 -0.11801,-4.1355 1.18643,-0.7533 2.19564,-0.625 3.22683,0.4509 z"
         id="path14921"
         inkscape:connector-curvature="0"
         sodipodi:nodetypes="sssss" />
    </g>
    <path
       style="fill:#f3f3f1;fill-opacity:1;stroke:#26241e;stroke-width:1px;stroke-linecap:butt;stroke-linejoin:miter;stroke-opacity:1"
       d="m 186.07427,1031.0303 c 0.44143,-0.2795 4.19841,-0.9045 4.64868,-0.093 0.36466,0.6573 -8.00894,18.8062 -8.83249,19.5954 -0.57185,0.5478 -3.49286,0.6658 -3.90488,0 -0.59935,-0.9687 7.74916,-19.2876 8.08869,-19.5025 z"
       id="path14929"
       inkscape:connector-curvature="0"
       sodipodi:nodetypes="sssss" />
    <path
       sodipodi:nodetypes="sssss"
       inkscape:connector-curvature="0"
       id="path14952"
       d="m 202.68489,1048.8388 c 0.0559,1.4782 -1.17252,1.8214 -2.55099,2.095 -1.75339,0.348 -2.64191,-1.102 -2.54465,-2.6786 0.0911,-1.4765 1.14563,-2.095 2.551,-2.095 1.40536,0 2.48691,1.1533 2.54464,2.6786 z"
       style="color:#000000;fill:#f3f3f1;fill-opacity:1;fill-rule:nonzero;stroke:#26241e;stroke-width:1;stroke-linejoin:round;stroke-miterlimit:4;stroke-opacity:1;marker:none;visibility:visible;display:inline;overflow:visible;enable-background:accumulate" />
    <path
       style="color:#000000;fill:#f3f3f1;fill-opacity:1;fill-rule:nonzero;stroke:#26241e;stroke-width:1;stroke-linejoin:round;stroke-miterlimit:4;stroke-opacity:1;marker:none;visibility:visible;display:inline;overflow:visible;enable-background:accumulate"
       d="m 218.28647,1046.9575 c 0.85993,0.9308 -0.0114,1.9602 -0.32243,3.2852 -0.40847,1.7403 -2.64735,1.0889 -3.6934,-0.095 -0.97962,-1.1085 -0.6713,-2.2915 0.32244,-3.2852 0.99374,-0.9938 2.65744,-1.0263 3.69339,0.095 z"
       id="path16507"
       inkscape:connector-curvature="0"
       sodipodi:nodetypes="sssss" />
    <path
       style="fill:#f3f3f1;stroke:#26241e;stroke-width:1px;stroke-linecap:butt;stroke-linejoin:miter;stroke-opacity:1;fill-opacity:1"
       d="m 214.10714,1031.969 c 0.56116,-1.1329 3.23274,-1.6686 3.92857,-0.089 1.20555,2.7363 0.65306,11.7863 0.26786,11.9643 -1.47053,0.6796 -2.83244,0.9885 -4.01786,0.2679 -0.38726,-0.2354 -0.18606,-2.3865 -0.011,-3.8642 0.18557,-1.5664 -0.0737,-4.4427 -0.41082,-6.0686 -0.246,-1.1863 -0.0602,-1.5974 0.24325,-2.2101 z"
       id="path16509"
       inkscape:connector-curvature="0"
       sodipodi:nodetypes="sssssss" />
    <path
       style="fill:#f3f3f1;fill-opacity:1;stroke:#26241e;stroke-width:1px;stroke-linecap:butt;stroke-linejoin:miter;stroke-opacity:1"
       d="m 234.15003,1032.1908 c -0.86743,-1.5898 -4.95905,-1.3978 -5.43219,0.3495 -1.49539,5.5228 -3.56148,10.7325 -3.57474,17.5848 -0.002,1.306 2.88875,1.1185 3.87514,0.2596 1.39344,-1.2131 -0.16828,-4.4154 1.24665,-5.6035 0.75966,-0.6378 1.91817,-0.822 2.72861,-0.2497 1.77917,1.2565 0.39864,4.8896 2.17288,6.1529 1.21708,0.8667 4.19044,1.0131 3.98528,-0.4644 -0.70132,-5.0509 -3.05246,-14.4569 -5.00163,-18.0292 z m -2.54837,4.6397 c 1.51404,0.021 3.02929,2.8889 2.31306,4.0203 -0.74944,1.1838 -3.49548,0.998 -4.20557,-0.2098 -0.71892,-1.2227 0.4716,-3.8304 1.89251,-3.8105 z"
       id="path16516"
       inkscape:connector-curvature="0"
       sodipodi:nodetypes="sssssssssssss" />
    <path
       style="fill:#f3f3f1;fill-opacity:1;stroke:#26241e;stroke-width:1px;stroke-linecap:butt;stroke-linejoin:miter;stroke-opacity:1"
       d="m 254.71531,1033.2057 c 0.13056,-1.1409 -3.97078,-2.9207 -6.48368,-2.5983 -2.61393,0.3353 -5.36132,1.9685 -6.33634,4.4122 -1.66235,4.1665 -1.26513,9.7551 1.37533,13.3837 1.28368,1.764 3.80934,2.5733 5.99251,2.6473 2.48989,0.084 5.37956,-1.2667 5.9925,-3.6769 0.37667,-1.481 -0.94108,-2.573 -2.45595,-2.7943 -1.50601,-0.2201 -2.16188,1.8532 -3.68391,1.8629 -1.39553,0.011 -2.88013,-1.2635 -3.68392,-2.4022 -0.87363,-1.2375 -1.55283,-3.8078 -0.29472,-6.7654 0.65317,-1.5354 1.42318,-2.4455 3.09449,-2.4513 1.42595,0 2.94611,0.8701 4.37158,0.8335 1.19158,-0.031 2.01013,-1.5601 2.11211,-2.4512 z"
       id="path16520"
       inkscape:connector-curvature="0"
       sodipodi:nodetypes="sssssssssssss" />
    <path
       style="fill:#f3f3f1;fill-opacity:1;stroke:#26241e;stroke-width:1px;stroke-linecap:butt;stroke-linejoin:miter;stroke-opacity:1"
       d="m 257.51363,1032.1576 c -0.67209,0.972 -0.93283,17.843 -0.24075,18.2615 1.99163,1.2043 4.87675,0.7534 6.98181,-0.2404 3.10612,-1.4663 6.1704,-4.3538 6.80985,-7.7233 0.60808,-3.2042 -0.76574,-7.1859 -3.33614,-9.1994 -2.694,-2.1102 -8.26964,-3.9115 -10.21477,-1.0984 z m 3.53758,4.0946 c 1.47484,-2.2849 5.83394,1.5729 5.86649,4.2907 0.0343,2.8688 -4.71288,7.1922 -6.14163,4.7028 -0.94912,-1.6538 -0.50772,-7.7807 0.27514,-8.9935 z"
       id="path16522"
       inkscape:connector-curvature="0"
       sodipodi:nodetypes="ssssssssss" />
    <path
       style="fill:#f3f3f1;fill-opacity:1;stroke:#26241e;stroke-width:1px;stroke-linecap:butt;stroke-linejoin:miter;stroke-opacity:1"
       d="m 275.23299,1031.4293 c -3.04846,3.6279 -1.86421,16.9007 -0.80727,18.5324 1.02326,1.5796 10.27726,1.216 11.59264,0.2624 1.08456,-0.7864 0.3265,-3.8438 -0.37242,-4.7462 -1.01242,-1.3069 -7.35823,1.6184 -8.47989,0.4736 -0.75846,-0.774 -0.56045,-3.0993 0,-3.7205 0.86871,-0.9631 2.97156,1.0112 3.72138,-0.068 0.28506,-0.4102 0.56153,-1.9562 0.12203,-3.044 -0.40786,-1.0095 -2.41495,0.06 -3.53837,-0.406 -0.33149,-0.1378 -0.1649,-2.0715 0.18302,-3.3822 0.6318,-2.3803 5.91945,2.4443 8.02943,0.1272 1.73766,-1.9084 1.68596,-5.0617 -0.72569,-4.6108 -5.27995,1.9478 -7.70723,-1.819 -9.72486,0.5821 z"
       id="path16526"
       inkscape:connector-curvature="0"
       sodipodi:nodetypes="ssssssssssscs" />
    <path
       style="fill:#f3f3f1;fill-opacity:1;stroke:#26241e;stroke-width:1px;stroke-linecap:butt;stroke-linejoin:miter;stroke-opacity:1"
       d="m 299.95536,1036.2813 c 0.96724,-0.011 2.22646,-1.3675 1.83035,-2.2921 -1.03288,-2.4109 -3.14812,-3.4416 -5.17857,-3.368 -2.69529,0.097 -5.37731,2.4202 -6.5625,4.9585 -1.9959,4.2745 -1.54003,10.6597 1.47321,14.2203 1.5891,1.8778 5.01839,1.5788 7.18751,0.5146 1.60168,-0.7859 1.27,-3.2331 1.91963,-3.1341 0.69326,0.1055 -0.98133,3.2099 0.44643,3.6486 1.5526,0.477 1.48849,0.5048 1.98727,-0.6298 0.11597,-0.2638 -0.14872,-9.0661 -0.75893,-9.4023 -1.39146,-0.7667 -5.53956,0.3637 -6.36226,0.4895 -0.98755,0.1511 -0.55883,1.868 0.17857,2.5728 1.39791,1.3359 2.58986,-0.231 2.76786,0.4209 0.18734,0.6863 -0.70779,2.286 -2.23215,3.1341 -1.44124,0.8019 -2.3599,-0.026 -3.4375,-1.3097 -1.34063,-1.5974 -1.93258,-5.727 -0.26786,-8.9813 0.88975,-1.7393 1.33722,-2.5001 3.2143,-2.3389 1.15693,0.1 2.63385,1.5048 3.79464,1.4969 z"
       id="path16528"
       inkscape:connector-curvature="0"
       sodipodi:nodetypes="ssssssssssssssssss" />
    <path
       style="fill:#f3f3f1;fill-opacity:1;stroke:#26241e;stroke-width:1px;stroke-linecap:butt;stroke-linejoin:miter;stroke-opacity:1"
       d="m 307.45536,1031.7027 c 0.77894,-0.5956 2.71751,-1.0113 3.03571,-0.1513 0.65534,1.7711 -1.12142,7.3461 -0.53571,8.272 0.5131,0.8112 4.53442,0.7538 5,0.2017 0.77988,-0.9246 -1.15311,-7.5095 -0.625,-8.7259 0.46759,-1.077 3.26714,-1.1162 3.21428,-0.2018 -0.18172,3.1433 1.35733,16.253 0.58036,19.2678 -0.28899,1.1212 -2.74212,1.5071 -3.08036,0.4034 -0.37031,-1.2081 1.13757,-5.9932 0.35714,-6.6075 -0.7843,-0.6173 -5.25549,-1.2836 -5.53571,-0.5043 -0.34548,0.9607 0.24027,5.6618 -0.35714,6.2544 -0.77454,0.7683 -2.58755,1.3254 -3.08036,0.3027 -0.59988,-1.245 0.0163,-17.7385 1.02679,-18.5112 z"
       id="path16530"
       inkscape:connector-curvature="0"
       sodipodi:nodetypes="sssssssssssss" />
    <path
       style="fill:#f3f3f1;fill-opacity:1;stroke:#26241e;stroke-width:1px;stroke-linecap:butt;stroke-linejoin:miter;stroke-opacity:1"
       d="m 321.72596,1031.8198 c 0.9709,-1.0029 10.7955,-1.1617 12.3073,-0.4431 1.41454,0.6723 0.80699,3.2969 -0.36601,4.3811 -0.92725,0.857 -3.85813,-1.6106 -3.84318,-0.2954 0.0227,1.9966 -0.72898,8.5304 0.68628,11.371 0.65567,1.316 2.96027,-1.0632 3.93468,0 0.76032,0.8296 0.61252,2.5697 -0.0457,3.495 -0.55407,0.7787 -12.90057,1.0852 -13.22235,0.2461 -0.34943,-0.9113 -0.65812,-2.0903 0,-3.3966 0.47343,-0.9395 4.47143,1.1334 5.12424,0.1477 0.77676,-1.1729 0.11448,-10.9453 0.13725,-11.8632 0.0338,-1.3639 -3.954,0.6102 -4.94122,-0.2462 -0.65267,-0.5661 -0.70886,-2.4282 0.22872,-3.3964 z"
       id="path16532"
       inkscape:connector-curvature="0"
       sodipodi:nodetypes="sssssssssssss" />
    <path
       style="fill:#f3f3f1;fill-opacity:1;stroke:#26241e;stroke-width:1px;stroke-linecap:butt;stroke-linejoin:miter;stroke-opacity:1"
       d="m 337.85715,1031.4239 c -1.18644,1.204 -0.47737,17.8179 0.0893,18.6607 0.45938,0.6833 11.73333,1.5408 12.36607,0.5357 0.47258,-0.7507 0.57302,-4.3246 0.13393,-4.9107 -0.72429,-0.9668 -7.55825,0.8053 -8.16964,0.045 -0.77305,-0.9617 0.84248,-13.7046 -0.0446,-14.7321 -1.94039,-0.7405 -3.76361,-0.2191 -4.375,0.4014 z"
       id="path16534"
       inkscape:connector-curvature="0"
       sodipodi:nodetypes="ssssscs" />
    <path
       style="fill:#f3f3f1;fill-opacity:1;stroke:#26241e;stroke-width:1px;stroke-linecap:butt;stroke-linejoin:miter;stroke-opacity:1"
       d="m 354.51315,1032.1659 c 0.78781,-1.1025 3.34842,-0.9126 3.99553,0.2819 0.75057,1.3856 4.14228,13.7368 5.1896,14.0476 0.46406,0.1377 -1.81547,-13.6956 -1.0563,-14.8932 0.74149,-1.1698 3.59297,-1.2052 4.08739,0.094 0.38847,1.0208 0.64151,18.8106 0.13773,19.0746 -1.27864,0.6703 -3.92234,0.7684 -5.28145,0.2349 -0.9851,-0.3867 -3.83845,-14.5929 -5.18959,-13.2958 -0.31463,0.302 1.67631,10.8958 0.50517,12.5911 -0.78652,1.1385 -4.61791,1.1902 -4.08738,-0.094 1.41223,-3.4183 -0.81332,-14.5246 1.6993,-18.041 z"
       id="path16536"
       inkscape:connector-curvature="0"
       sodipodi:nodetypes="sssssssssss" />
    <path
       style="fill:#f3f3f1;fill-opacity:1;stroke:#26241e;stroke-width:0.99999994000000003px;stroke-linecap:butt;stroke-linejoin:miter;stroke-opacity:1"
       d="m 375.97768,1030.5327 c -2.08354,0.1192 -4.19838,1.8647 -5.25,3.9582 -1.70988,3.4039 -2.07562,8.239 -0.625,11.8016 0.98917,2.4295 3.31408,4.6103 5.625,4.7207 2.51677,0.1204 5.30385,-1.9439 6.46875,-4.539 1.68009,-3.743 1.27157,-9.1053 -0.71875,-12.6369 -1.13072,-2.0064 -3.4386,-3.4224 -5.5,-3.3046 z m -0.0402,4.342 c 2.00533,-0.065 3.95383,2.8634 4.03125,5.1928 0.0908,2.7338 -1.98164,6.8856 -4.3125,6.5 -2.3153,-0.383 -2.9167,-4.9031 -2.5625,-7.5894 0.2289,-1.7359 1.33303,-4.0541 2.84375,-4.1034 z"
       id="path16538"
       inkscape:connector-curvature="0"
       sodipodi:nodetypes="ssssssssssss" />
    <path
       style="fill:#f3f3f1;fill-opacity:1;stroke:#26241e;stroke-width:1px;stroke-linecap:butt;stroke-linejoin:miter;stroke-opacity:1"
       d="m 393.28465,1030.5184 c -2.42067,0.013 -5.71198,0.1011 -6.9212,2.1913 -1.76525,3.0506 -0.78475,16.9256 0.0721,17.7094 1.42367,1.3023 3.73234,0.578 4.44934,-0.5644 1.79706,-2.8634 -1.67933,-9.1919 -0.61796,-9.2422 1.26397,-0.06 2.99413,1.1249 4.2588,1.0828 1.6088,-0.054 2.92007,-0.7467 3.64085,-2.1811 1.12041,-2.2294 1.33004,-4.7849 -0.20599,-6.7533 -1.03365,-1.3245 -2.99213,-2.2515 -4.67593,-2.2425 z m -1.01964,3.5357 c 1.0847,-0.2077 2.52269,0.6365 2.84778,1.6884 0.23416,0.7578 -0.28071,1.8369 -1.00934,2.1553 -1.23549,0.5399 -3.45281,0.061 -3.85713,-1.2213 -0.33133,-1.051 0.93302,-2.4144 2.01869,-2.6224 z"
       id="path16544"
       inkscape:connector-curvature="0"
       sodipodi:nodetypes="ssssssssssssss" />
    <path
       style="fill:#f3f3f1;fill-opacity:1;stroke:#26241e;stroke-width:1px;stroke-linecap:butt;stroke-linejoin:miter;stroke-opacity:1"
       d="m 407.7634,1030.7069 c -1.88158,-0.349 -4.68305,-0.4485 -5.12362,1.3996 -0.88477,3.7117 1.15855,12.7507 0.11843,18.2236 -0.20637,1.0859 2.48049,1.1204 3.31794,0.3919 2.24478,-1.9529 0.0504,-8.0745 0.82385,-8.3979 0.57017,-0.2385 2.24816,9.0407 4.50292,8.7226 1.45959,-0.206 2.75949,0.5934 3.38,-0.7334 0.59374,-1.2697 -5.24011,-8.5108 -4.62705,-9.1033 0.88429,-0.855 1.61628,-0.6836 2.6013,-1.4222 1.68,-1.2595 1.53274,-3.5598 0.85206,-5.5369 -0.86687,-2.518 -3.20983,-3.0551 -5.8459,-3.544 z m -0.0564,2.9504 c 1.6949,0.039 3.32263,1.4964 2.91166,2.5979 -0.32424,0.8689 -1.20027,1.7541 -2.13296,1.8027 -1.16337,0.06 -2.73119,-0.8135 -2.88345,-1.9595 -0.15457,-1.1634 0.83061,-2.4704 2.10475,-2.4411 z"
       id="path16548"
       inkscape:connector-curvature="0"
       sodipodi:nodetypes="ssssssssssssssss" />
    <path
       style="fill:#f3f3f1;fill-opacity:1;stroke:#26241e;stroke-width:1px;stroke-linecap:butt;stroke-linejoin:miter;stroke-opacity:1"
       d="m 426.67147,1037.0799 c 1.40156,-0.2811 3.12476,-0.9254 2.89179,-2.215 -0.28527,-1.5791 -2.44086,-3.809 -4.97656,-4.1615 -2.13711,-0.297 -4.59163,1.2775 -5.64906,3.1546 -1.20922,2.1468 -0.84193,4.4021 0.538,6.4436 1.29071,1.9097 4.10641,2.4036 5.51456,4.2287 0.67905,0.8801 1.75369,1.5351 1.07602,2.4164 -0.82304,1.0701 -2.84541,1.4459 -4.03506,0.8054 -0.97952,-0.5274 -0.44966,-2.7664 -1.54676,-2.9533 -0.90816,-0.1548 -2.27329,-0.1464 -2.89179,0.6712 -0.88057,1.164 0.38405,3.2108 1.54678,4.0943 2.54322,1.9327 5.30813,1.6851 8.20459,0.3357 1.78169,-0.8301 2.86221,-3.6066 1.68127,-6.2423 -1.12908,-2.5199 -2.88125,-2.7554 -5.64906,-4.2957 -1.4573,-0.8109 -1.92163,-3.2579 -0.80702,-4.4971 0.52413,-0.5828 1.70758,-0.4441 2.35378,0 1.08697,0.747 0.45465,2.4745 1.74852,2.215 z"
       id="path16552"
       inkscape:connector-curvature="0"
       sodipodi:nodetypes="sssssssssssssssss" />
    <path
       style="fill:#f3f3f1;fill-opacity:1;stroke:#26241e;stroke-width:1px;stroke-linecap:butt;stroke-linejoin:miter;stroke-opacity:1"
       d="m 433.73871,1031.4211 c 3.80585,0.336 10.12649,-1.5468 12.79953,-0.328 1.06732,0.4866 0.5353,2.9366 -0.13127,4.067 -0.80355,1.3628 -3.64471,-1.6143 -4.72599,-0.4592 -0.908,0.97 1.33037,15.3565 0.21527,16.1123 -1.24954,0.847 -3.99444,1.4768 -4.52906,0.066 -0.42936,-1.1333 1.84032,-14.8151 0.63804,-15.7187 -1.2417,-0.9331 -3.63011,1.0966 -4.66034,-0.066 -0.81715,-0.9218 -0.83366,-3.7818 0.39382,-3.6734 z"
       id="path16554"
       inkscape:connector-curvature="0"
       sodipodi:nodetypes="sssssssss" />
    <path
       style="fill:#f3f3f1;fill-opacity:1;stroke:#26241e;stroke-width:1px;stroke-linecap:butt;stroke-linejoin:miter;stroke-opacity:1"
       d="m 450.17538,3.0480829 c 0.14818,-0.4464181 2.3792,-0.5941513 2.96733,-0.063135 0.8328,0.7519229 1.10145,15.5047701 2.77025,15.5557731 1.79672,0.05491 0.62944,-14.7935154 1.7123,-15.8083112 0.99812,-0.9353825 3.89586,-0.324769 3.80114,1.0398615 -0.36909,5.3176918 -2.09666,13.4090567 -2.98805,17.5779377 -0.37843,1.769851 -5.11186,1.781753 -5.42957,0 -0.95639,-5.363597 -3.77367,-15.4693682 -2.8334,-18.3021261 z"
       id="path16556"
       inkscape:connector-curvature="0"
       transform="translate(0,1028.3622)"
       sodipodi:nodetypes="ssssssss" />
    <path
       style="fill:#f3f3f1;fill-opacity:1;stroke:#26241e;stroke-width:1px;stroke-linecap:butt;stroke-linejoin:miter;stroke-opacity:1"
       d="m 464.95204,1032.6209 c 0.15984,-1.2676 2.45817,-1.5607 3.09359,-0.5442 0.70857,1.1335 -1.25639,13.739 0.63135,13.5678 1.15681,-0.105 1.54181,-10.9111 2.96732,-11.5463 0.81162,-0.3616 1.63251,-0.4015 2.2097,0.3888 1.18213,1.6185 0.52408,11.9349 1.60994,11.5462 1.63335,-0.5847 0.2811,-12.6144 1.13642,-14.0343 0.60198,-0.9993 2.04951,-0.9982 2.55695,0.078 0.2889,0.6126 0.71546,13.8304 -1.57837,18.6605 -0.38527,0.8113 -4.287,1.0627 -4.48255,0 -0.60146,-3.2686 0.21639,-11.3681 -0.76303,-11.4071 -1.02211,-0.041 -1.04234,10.5352 -1.38354,11.1739 -0.51524,0.9645 -3.57259,0.8535 -4.10375,-0.6998 -0.75703,-2.2138 -2.43793,-12.8697 -1.89403,-17.1833 z"
       id="path16558"
       inkscape:connector-curvature="0"
       sodipodi:nodetypes="csssssssssssssc" />
    <path
       style="fill:#f3f3f1;fill-opacity:1;stroke:#26241e;stroke-width:1px;stroke-linecap:butt;stroke-linejoin:miter;stroke-opacity:1"
       d="m 481.74711,1032.2001 c 0.43257,-0.5416 2.60755,-1.5194 3.09359,-1.0521 0.84048,0.808 2.05722,7.8743 2.65165,7.4816 1.07655,-0.711 1.51005,-6.8013 2.0203,-7.8713 0.47166,-0.989 3.70499,-0.3827 4.10375,0.4676 0.46226,0.9857 -4.03542,8.0394 -3.91434,9.469 0.0976,1.1523 5.73798,9.3962 5.3033,9.8585 -0.43509,0.4628 -5.1706,1.2417 -5.49271,0.6235 -0.36229,-0.6954 -1.38042,-7.2259 -1.9256,-6.9361 -0.73948,0.3932 -1.39816,6.2971 -1.9256,6.4685 -1.21904,0.3961 -3.50289,0.9408 -3.59867,0.3896 -0.50101,-2.8829 3.25002,-8.7423 2.9989,-10.3651 -0.16793,-1.0851 -4.02609,-7.643 -3.31457,-8.5337 z"
       id="path16560"
       inkscape:connector-curvature="0"
       sodipodi:nodetypes="sssssssssssss" />
    <path
       style="fill:#f3f3f1;fill-opacity:1;stroke:#26241e;stroke-width:1px;stroke-linecap:butt;stroke-linejoin:miter;stroke-opacity:1"
       d="m 497.60345,1031.4659 c -0.36402,0.6966 5.45803,6.9805 5.4927,7.9117 0.037,0.9931 -0.005,2.2333 -1.36693,4.789 -1.42378,2.6712 -4.0477,4.9434 -4.06264,6.2429 -0.0205,1.7834 2.64557,0.5522 4.13532,0.2228 2.87354,-0.6354 8.75667,-16.7236 8.55472,-19.6121 -0.12798,-1.8304 -2.49105,-0.9846 -3.78807,0.037 -1.26183,0.9941 -0.78822,6.5397 -1.5468,5.423 -1.97568,-2.9083 -2.59125,-5.346 -3.88277,-5.5345 -2.00731,-0.2929 -3.04623,-0.4162 -3.53553,0.52 z"
       id="path16562"
       inkscape:connector-curvature="0"
       sodipodi:nodetypes="ssssssssss" />
  </g>
</svg>
