<?xml version="1.0" encoding="UTF-8" standalone="no"?>
<!-- Created with Inkscape (http://www.inkscape.org/) -->

<svg
   xmlns:dc="http://purl.org/dc/elements/1.1/"
   xmlns:cc="http://creativecommons.org/ns#"
   xmlns:rdf="http://www.w3.org/1999/02/22-rdf-syntax-ns#"
   xmlns:svg="http://www.w3.org/2000/svg"
   xmlns="http://www.w3.org/2000/svg"
   xmlns:sodipodi="http://sodipodi.sourceforge.net/DTD/sodipodi-0.dtd"
   xmlns:inkscape="http://www.inkscape.org/namespaces/inkscape"
   width="32"
   height="32"
   id="svg2"
   version="1.1"
   inkscape:version="0.48.4 r9939"
   sodipodi:docname="oak-player.svg"
   inkscape:export-filename="/home/cromo/projects/ludum-dare-34/art/icon.png"
   inkscape:export-xdpi="90"
   inkscape:export-ydpi="90">
  <defs
     id="defs4" />
  <sodipodi:namedview
     id="base"
     pagecolor="#ffffff"
     bordercolor="#666666"
     borderopacity="1.0"
     inkscape:pageopacity="0.0"
     inkscape:pageshadow="2"
     inkscape:zoom="22.88109"
     inkscape:cx="28.007239"
     inkscape:cy="16.687826"
     inkscape:document-units="px"
     inkscape:current-layer="g3798"
     showgrid="true"
     fit-margin-top="0"
     fit-margin-left="0"
     fit-margin-right="0"
     fit-margin-bottom="0"
     inkscape:window-width="1920"
     inkscape:window-height="1056"
     inkscape:window-x="1920"
     inkscape:window-y="0"
     inkscape:window-maximized="1"
     inkscape:snap-grids="false">
    <inkscape:grid
       type="xygrid"
       id="grid4735"
       empspacing="8"
       visible="true"
       enabled="true"
       snapvisiblegridlinesonly="true"
       spacingx="1px"
       spacingy="1px" />
  </sodipodi:namedview>
  <metadata
     id="metadata7">
    <rdf:RDF>
      <cc:Work
         rdf:about="">
        <dc:format>image/svg+xml</dc:format>
        <dc:type
           rdf:resource="http://purl.org/dc/dcmitype/StillImage" />
        <dc:title></dc:title>
      </cc:Work>
    </rdf:RDF>
  </metadata>
  <g
     inkscape:label="Layer 1"
     inkscape:groupmode="layer"
     id="layer1"
     transform="translate(122.96674,-308.54841)">
    <g
       id="g3798"
       transform="matrix(3.3277346,0,0,3.3277346,-172.32936,-531.22851)">
      <g
         id="g5918"
         transform="matrix(0,1,-1,0,276.87311,237.53938)">
        <g
           id="g5914">
          <path
             style="fill:#0d7225;fill-opacity:1;stroke:none"
             d="m 19.291835,261.31812 c 0.04984,0.0805 0.445253,0.0929 0.475599,0.003 0.03601,-0.10645 -0.08747,-0.56299 0.03303,-0.88363 0.109442,-0.29121 0.376506,-0.27165 0.59528,-0.42136 0.08701,-0.0595 0.327302,-0.29814 0.254974,-0.37485 -0.06796,-0.0721 -0.200422,-0.0213 -0.297173,0 -0.08658,0.019 -0.330217,0.13926 -0.32682,0.0392 0.0174,-0.51237 0.999377,-0.46173 1.329972,-0.77087 0.177976,-0.16643 0.420705,-0.37004 0.459087,-0.61067 0.02469,-0.15479 0.04983,-0.34874 -0.0021,-0.38553 -0.05619,-0.0398 -0.384569,-0.10887 -0.532253,-0.0692 -0.130976,0.0351 -0.704205,0.18249 -0.797913,-0.0467 -0.15463,-0.37826 1.762648,-0.9449 1.821732,-1.78207 0.013,-0.18424 -0.258978,-0.31886 -0.458346,-0.2497 -0.584538,0.20278 -1.131296,0.60686 -1.107833,-0.0137 0.01757,-0.46466 0.897202,-0.9668 0.71126,-1.393 -0.07734,-0.17728 -0.764615,0.12889 -0.95796,0.13417 -0.363457,0.01 -0.334981,-0.0673 -0.299586,-0.24207 0.02867,-0.14155 0.127708,-0.1753 0.195874,-0.39602 0.04991,-0.16161 0.188533,-0.6717 0.061,-0.77242 -0.1164,-0.0919 -0.459108,0.32604 -0.591933,0.31124 -0.16275,-0.0181 -0.0048,-0.6123 -0.349513,-0.61463 -0.53267,-0.004 -0.246192,0.66524 -0.398314,0.71931 -0.160927,0.0572 -0.40875,-0.46439 -0.576159,-0.43057 -0.352786,0.0713 -0.138962,0.6009 -0.06209,0.7936 0.07347,0.18418 0.26786,0.22719 0.248373,0.4512 -0.01428,0.16414 -0.1779,0.19272 -0.318301,0.16936 -0.144152,-0.024 -0.315885,-0.11555 -0.488785,-0.22376 -0.13974,-0.0875 -0.437999,-0.1371 -0.4362,0.0277 0.0023,0.21302 0.317252,0.6576 0.489667,0.78272 0.283669,0.20586 0.289316,0.42544 0.359426,0.76885 0.143204,0.70144 -1.269568,-0.24301 -1.448173,0.11424 -0.09018,0.18038 0.141096,0.5148 0.264534,0.67427 0.39152,0.50581 1.509477,0.77008 1.314006,1.19845 -0.0972,0.21301 -0.488256,0.065 -0.743286,0.0248 -0.18245,-0.0287 -0.466513,-0.10248 -0.558327,0.0578 -0.03272,0.0571 -0.0113,0.41852 0.09831,0.61611 0.136182,0.24548 0.405687,0.39042 0.631494,0.5572 0.28612,0.21134 1.313978,0.23849 1.185893,0.57033 -0.04129,0.10697 -0.161732,0.10196 -0.4418,0.0616 -0.110977,-0.016 -0.299017,-0.0823 -0.35402,0.0154 -0.05853,0.10397 0.20431,0.27994 0.309953,0.32231 0.196228,0.0787 0.280708,-0.008 0.68116,0.42249 0.140202,0.15058 -0.04725,0.7266 0.02623,0.84536 z"
             id="path4880"
             inkscape:connector-curvature="0"
             sodipodi:nodetypes="ssssssssssssssssssssssssssssssssssssssssssss" />
          <path
             style="fill:#439211;fill-opacity:1;stroke:none"
             d="M 14.946841,29.683677 16.432784,29.858494 15.5587,1.4944597 z"
             id="path5912"
             inkscape:connector-curvature="0"
             transform="matrix(0.30050473,0,0,0.30050473,14.833701,252.35694)" />
        </g>
        <g
           transform="translate(-0.27579978,-0.51219959)"
           id="g5906">
          <path
             style="fill:#9a6342;fill-opacity:1;stroke:none"
             d="m 16.039446,10.759752 c -1.109675,-0.02956 -3.152281,0.698149 -4.130048,1.223719 -1.293039,0.695036 -2.3161437,2.312415 -2.3163233,3.780414 -2.082e-4,1.70155 0.6793903,4.311442 1.5077953,5.113393 1.100585,1.065441 3.392766,1.571379 4.916724,1.726316 1.430554,0.145441 3.874124,-0.625213 5.025984,-1.485943 1.160454,-0.867151 1.983404,-3.115921 1.988542,-4.720055 0.0056,-1.755323 -1.172523,-3.632053 -2.644105,-4.588943 -1.119901,-0.728211 -3.013201,-1.013328 -4.348569,-1.048901 z"
             id="path5898"
             inkscape:connector-curvature="0"
             transform="matrix(0.30050473,0,0,0.30050473,14.833701,252.35694)"
             sodipodi:nodetypes="sssssssss" />
          <path
             style="fill:#855639;fill-opacity:1;stroke:none"
             d="m 20.229855,256.61962 c -0.04199,-0.13372 -0.455791,-0.0663 -0.512199,0.0147 -0.0052,0.007 -0.04602,0.19509 -0.09585,0.20793 -0.0815,0.021 -0.187133,-0.12852 -0.200552,-0.0953 -0.01401,0.0347 -0.08504,0.12473 -0.06161,0.18491 0.03922,0.10075 0.235229,0.1508 0.234895,0.17689 -0.0015,0.11557 -0.05003,0.30037 0.174017,0.31191 0.115819,0.006 0.210135,-0.51883 0.238035,-0.57622 0.05205,-0.10705 0.32178,-0.008 0.272518,-0.11656 -0.01642,-0.0361 -0.01685,-0.005 -0.04925,-0.10832 z"
             id="path5900"
             inkscape:connector-curvature="0"
             sodipodi:nodetypes="csssssssssc" />
          <path
             style="fill:#ad742b;fill-opacity:1;stroke:none"
             d="m 16.147102,21.755475 c 0,0 0.262741,3.425536 1.792406,3.445745 0.414685,0.0055 0.108162,-3.754781 0.108162,-3.754781 z"
             id="path5904"
             inkscape:connector-curvature="0"
             transform="matrix(0.30050473,0,0,0.30050473,14.833701,252.35694)"
             sodipodi:nodetypes="cscc" />
          <path
             style="fill:#855639;fill-opacity:1;stroke:none"
             d="m 22.837719,17.815273 c -0.03797,0.844736 -1.023954,2.709975 -1.622435,3.136709 -1.293524,0.92232 -1.863914,1.320657 -4.542821,1.684244 -1.382339,0.187615 -2.779354,-0.397444 -4.063817,-0.834396 -0.60837,-0.206957 -1.611958,-0.843816 -2.085989,-1.746051 0.977664,0.122596 1.490815,0.291861 1.684243,0.370843 1.287861,0.525872 2.692815,0.994218 4.079268,0.880751 1.468026,-0.120143 2.988919,-0.636831 4.171979,-1.514273 0.811335,-0.601746 1.877801,-1.044146 2.379572,-1.977827 z"
             id="path5902"
             inkscape:connector-curvature="0"
             transform="matrix(0.30050473,0,0,0.30050473,14.833701,252.35694)"
             sodipodi:nodetypes="cssscsssc" />
        </g>
      </g>
    </g>
  </g>
</svg>
