<?xml version="1.0" encoding="UTF-8" standalone="no"?>
<!-- Created with Inkscape (http://www.inkscape.org/) -->

<svg
   xmlns:dc="http://purl.org/dc/elements/1.1/"
   xmlns:cc="http://creativecommons.org/ns#"
   xmlns:rdf="http://www.w3.org/1999/02/22-rdf-syntax-ns#"
   xmlns:svg="http://www.w3.org/2000/svg"
   xmlns="http://www.w3.org/2000/svg"
   xmlns:sodipodi="http://sodipodi.sourceforge.net/DTD/sodipodi-0.dtd"
   xmlns:inkscape="http://www.inkscape.org/namespaces/inkscape"
   width="144"
   height="96"
   id="svg2"
   version="1.1"
   inkscape:version="0.48.4 r9939"
   sodipodi:docname="oak-player.svg"
   inkscape:export-filename="/home/cromo/projects/ludum-dare-34/art/oak-player.64x64.png"
   inkscape:export-xdpi="120"
   inkscape:export-ydpi="120">
  <defs
     id="defs4" />
  <sodipodi:namedview
     id="base"
     pagecolor="#000000"
     bordercolor="#666666"
     borderopacity="1.0"
     inkscape:pageopacity="0"
     inkscape:pageshadow="2"
     inkscape:zoom="6.9532167"
     inkscape:cx="78.388785"
     inkscape:cy="49.056191"
     inkscape:document-units="px"
     inkscape:current-layer="g5453"
     showgrid="true"
     fit-margin-top="0"
     fit-margin-left="0"
     fit-margin-right="0"
     fit-margin-bottom="0"
     inkscape:window-width="1920"
     inkscape:window-height="1056"
     inkscape:window-x="1920"
     inkscape:window-y="0"
     inkscape:window-maximized="1"
     inkscape:snap-grids="false">
    <inkscape:grid
       type="xygrid"
       id="grid4735"
       empspacing="12"
       visible="true"
       enabled="true"
       snapvisiblegridlinesonly="true"
       spacingx="4px"
       spacingy="4px" />
  </sodipodi:namedview>
  <metadata
     id="metadata7">
    <rdf:RDF>
      <cc:Work
         rdf:about="">
        <dc:format>image/svg+xml</dc:format>
        <dc:type
           rdf:resource="http://purl.org/dc/dcmitype/StillImage" />
        <dc:title></dc:title>
      </cc:Work>
    </rdf:RDF>
  </metadata>
  <g
     inkscape:label="Layer 1"
     inkscape:groupmode="layer"
     id="layer1"
     transform="translate(122.96674,-244.54841)">
    <g
       transform="matrix(0,4.7275229,-4.7275229,0,1115.8573,175.42146)"
       id="g5918">
      <g
         id="g5914">
        <path
           sodipodi:nodetypes="ssssssssssssssssssssssssssssssssssssssssssss"
           inkscape:connector-curvature="0"
           id="path4880"
           d="m 19.291835,261.31812 c 0.04984,0.0805 0.445253,0.0929 0.475599,0.003 0.03601,-0.10645 -0.08747,-0.56299 0.03303,-0.88363 0.109442,-0.29121 0.376506,-0.27165 0.59528,-0.42136 0.08701,-0.0595 0.327302,-0.29814 0.254974,-0.37485 -0.06796,-0.0721 -0.200422,-0.0213 -0.297173,0 -0.08658,0.019 -0.330217,0.13926 -0.32682,0.0392 0.0174,-0.51237 0.999377,-0.46173 1.329972,-0.77087 0.177976,-0.16643 0.420705,-0.37004 0.459087,-0.61067 0.02469,-0.15479 0.04983,-0.34874 -0.0021,-0.38553 -0.05619,-0.0398 -0.384569,-0.10887 -0.532253,-0.0692 -0.130976,0.0351 -0.704205,0.18249 -0.797913,-0.0467 -0.15463,-0.37826 1.762648,-0.9449 1.821732,-1.78207 0.013,-0.18424 -0.258978,-0.31886 -0.458346,-0.2497 -0.584538,0.20278 -1.131296,0.60686 -1.107833,-0.0137 0.01757,-0.46466 0.897202,-0.9668 0.71126,-1.393 -0.07734,-0.17728 -0.764615,0.12889 -0.95796,0.13417 -0.363457,0.01 -0.334981,-0.0673 -0.299586,-0.24207 0.02867,-0.14155 0.127708,-0.1753 0.195874,-0.39602 0.04991,-0.16161 0.188533,-0.6717 0.061,-0.77242 -0.1164,-0.0919 -0.459108,0.32604 -0.591933,0.31124 -0.16275,-0.0181 -0.0048,-0.6123 -0.349513,-0.61463 -0.53267,-0.004 -0.246192,0.66524 -0.398314,0.71931 -0.160927,0.0572 -0.40875,-0.46439 -0.576159,-0.43057 -0.352786,0.0713 -0.138962,0.6009 -0.06209,0.7936 0.07347,0.18418 0.26786,0.22719 0.248373,0.4512 -0.01428,0.16414 -0.1779,0.19272 -0.318301,0.16936 -0.144152,-0.024 -0.315885,-0.11555 -0.488785,-0.22376 -0.13974,-0.0875 -0.437999,-0.1371 -0.4362,0.0277 0.0023,0.21302 0.317252,0.6576 0.489667,0.78272 0.283669,0.20586 0.289316,0.42544 0.359426,0.76885 0.143204,0.70144 -1.269568,-0.24301 -1.448173,0.11424 -0.09018,0.18038 0.141096,0.5148 0.264534,0.67427 0.39152,0.50581 1.509477,0.77008 1.314006,1.19845 -0.0972,0.21301 -0.488256,0.065 -0.743286,0.0248 -0.18245,-0.0287 -0.466513,-0.10248 -0.558327,0.0578 -0.03272,0.0571 -0.0113,0.41852 0.09831,0.61611 0.136182,0.24548 0.405687,0.39042 0.631494,0.5572 0.28612,0.21134 1.313978,0.23849 1.185893,0.57033 -0.04129,0.10697 -0.161732,0.10196 -0.4418,0.0616 -0.110977,-0.016 -0.299017,-0.0823 -0.35402,0.0154 -0.05853,0.10397 0.20431,0.27994 0.309953,0.32231 0.196228,0.0787 0.280708,-0.008 0.68116,0.42249 0.140202,0.15058 -0.04725,0.7266 0.02623,0.84536 z"
           style="fill:#0d7225;fill-opacity:1;stroke:none" />
        <path
           transform="matrix(0.30050473,0,0,0.30050473,14.833701,252.35694)"
           inkscape:connector-curvature="0"
           id="path5912"
           d="M 14.946841,29.683677 16.432784,29.858494 15.5587,1.4944597 z"
           style="fill:#439211;fill-opacity:1;stroke:none" />
      </g>
      <g
         id="g5906"
         transform="translate(-0.27579978,-0.51219959)">
        <path
           sodipodi:nodetypes="sssssssss"
           transform="matrix(0.30050473,0,0,0.30050473,14.833701,252.35694)"
           inkscape:connector-curvature="0"
           id="path5898"
           d="m 16.039446,10.759752 c -1.109675,-0.02956 -3.152281,0.698149 -4.130048,1.223719 -1.293039,0.695036 -2.3161437,2.312415 -2.3163233,3.780414 -2.082e-4,1.70155 0.6793903,4.311442 1.5077953,5.113393 1.100585,1.065441 3.392766,1.571379 4.916724,1.726316 1.430554,0.145441 3.874124,-0.625213 5.025984,-1.485943 1.160454,-0.867151 1.983404,-3.115921 1.988542,-4.720055 0.0056,-1.755323 -1.172523,-3.632053 -2.644105,-4.588943 -1.119901,-0.728211 -3.013201,-1.013328 -4.348569,-1.048901 z"
           style="fill:#9a6342;fill-opacity:1;stroke:none" />
        <path
           sodipodi:nodetypes="csssssssssc"
           inkscape:connector-curvature="0"
           id="path5900"
           d="m 20.229855,256.61962 c -0.04199,-0.13372 -0.455791,-0.0663 -0.512199,0.0147 -0.0052,0.007 -0.04602,0.19509 -0.09585,0.20793 -0.0815,0.021 -0.187133,-0.12852 -0.200552,-0.0953 -0.01401,0.0347 -0.08504,0.12473 -0.06161,0.18491 0.03922,0.10075 0.235229,0.1508 0.234895,0.17689 -0.0015,0.11557 -0.05003,0.30037 0.174017,0.31191 0.115819,0.006 0.210135,-0.51883 0.238035,-0.57622 0.05205,-0.10705 0.32178,-0.008 0.272518,-0.11656 -0.01642,-0.0361 -0.01685,-0.005 -0.04925,-0.10832 z"
           style="fill:#855639;fill-opacity:1;stroke:none" />
        <path
           sodipodi:nodetypes="cscc"
           transform="matrix(0.30050473,0,0,0.30050473,14.833701,252.35694)"
           inkscape:connector-curvature="0"
           id="path5904"
           d="m 16.147102,21.755475 c 0,0 0.262741,3.425536 1.792406,3.445745 0.414685,0.0055 0.108162,-3.754781 0.108162,-3.754781 z"
           style="fill:#ad742b;fill-opacity:1;stroke:none" />
        <path
           sodipodi:nodetypes="cssscsssc"
           transform="matrix(0.30050473,0,0,0.30050473,14.833701,252.35694)"
           inkscape:connector-curvature="0"
           id="path5902"
           d="m 22.837719,17.815273 c -0.03797,0.844736 -1.023954,2.709975 -1.622435,3.136709 -1.293524,0.92232 -1.863914,1.320657 -4.542821,1.684244 -1.382339,0.187615 -2.779354,-0.397444 -4.063817,-0.834396 -0.60837,-0.206957 -1.611958,-0.843816 -2.085989,-1.746051 0.977664,0.122596 1.490815,0.291861 1.684243,0.370843 1.287861,0.525872 2.692815,0.994218 4.079268,0.880751 1.468026,-0.120143 2.988919,-0.636831 4.171979,-1.514273 0.811335,-0.601746 1.877801,-1.044146 2.379572,-1.977827 z"
           style="fill:#855639;fill-opacity:1;stroke:none" />
      </g>
    </g>
    <g
       transform="matrix(0,4.405701,-4.7275229,0,1164.6248,181.72322)"
       id="g5401">
      <path
         sodipodi:nodetypes="csssssssssssssssssssssssssssssssssssssssssssc"
         inkscape:connector-curvature="0"
         id="path5403"
         d="m 19.291835,261.31812 c 0.04984,0.0805 0.445253,0.0929 0.475599,0.003 0.03601,-0.10645 -0.08747,-0.56299 0.03303,-0.88363 0.109442,-0.29121 0.329126,-0.3158 0.5479,-0.46551 0.08701,-0.0595 0.327302,-0.29814 0.254974,-0.37485 -0.06796,-0.0721 -0.200422,-0.0213 -0.297173,0 -0.08658,0.019 -0.330217,0.13926 -0.32682,0.0392 0.0174,-0.51237 0.895143,-0.44407 1.225738,-0.75321 0.177976,-0.16643 0.468084,-0.32589 0.506466,-0.56652 0.02469,-0.15479 0.04983,-0.34874 -0.0021,-0.38553 -0.05619,-0.0398 -0.384569,-0.10887 -0.532253,-0.0692 -0.130976,0.0351 -0.59997,0.16483 -0.693678,-0.0644 -0.15463,-0.37826 1.658413,-0.92724 1.717497,-1.76441 0.013,-0.18424 -0.258978,-0.31886 -0.458346,-0.2497 -0.584538,0.20278 -1.027061,0.5892 -1.003598,-0.0314 0.01757,-0.46466 0.802443,-0.90498 0.616501,-1.33118 -0.07734,-0.17728 -0.66038,0.11122 -0.853725,0.1165 -0.363457,0.01 -0.334981,-0.0673 -0.299586,-0.24207 0.02867,-0.14155 0.127708,-0.1753 0.195874,-0.39602 0.04991,-0.16161 0.188533,-0.6717 0.061,-0.77242 -0.1164,-0.0919 -0.468584,0.28189 -0.601409,0.26709 -0.16275,-0.0181 -0.0048,-0.6123 -0.349513,-0.61463 -0.53267,-0.004 -0.303047,0.63875 -0.455169,0.69282 -0.160927,0.0572 -0.40875,-0.46439 -0.576159,-0.43057 -0.352786,0.0713 -0.138962,0.6009 -0.06209,0.7936 0.07347,0.18418 0.22048,0.289 0.200993,0.51301 -0.01428,0.16414 -0.1779,0.19272 -0.318301,0.16936 -0.144152,-0.024 -0.315885,-0.11555 -0.488785,-0.22376 -0.13974,-0.0875 -0.437999,-0.1371 -0.4362,0.0277 0.0023,0.21302 0.317252,0.6576 0.489667,0.78272 0.283669,0.20586 0.289316,0.42544 0.359426,0.76885 0.143204,0.70144 -1.269568,-0.24301 -1.448173,0.11424 -0.09018,0.18038 0.141096,0.5148 0.264534,0.67427 0.39152,0.50581 1.509477,0.77008 1.314006,1.19845 -0.0972,0.21301 -0.488256,0.065 -0.743286,0.0248 -0.18245,-0.0287 -0.466513,-0.10248 -0.558327,0.0578 -0.03272,0.0571 -0.0113,0.41852 0.09831,0.61611 0.136182,0.24548 0.405687,0.39042 0.631494,0.5572 0.28612,0.21134 1.351882,0.22083 1.223797,0.55267 -0.04129,0.10697 -0.161732,0.10196 -0.4418,0.0616 -0.110977,-0.016 -0.299017,-0.0823 -0.35402,0.0154 -0.05853,0.10397 0.20431,0.27994 0.309953,0.32231 0.196228,0.0787 0.347039,-0.0257 0.747491,0.40483 0.140202,0.15058 -0.04725,0.7266 0.02623,0.84536 z"
         style="fill:#0d7225;fill-opacity:1;stroke:none" />
      <path
         transform="matrix(0.30050473,0,0,0.30050473,14.833701,252.35694)"
         inkscape:connector-curvature="0"
         id="path5405"
         d="M 14.946841,29.683677 16.432784,29.858494 15.5587,1.4944597 z"
         style="fill:#439211;fill-opacity:1;stroke:none" />
    </g>
    <g
       id="g5407"
       transform="matrix(0,4.7275229,-4.7275229,0,1167.0462,174.11762)">
      <path
         sodipodi:nodetypes="sssssssss"
         inkscape:connector-curvature="0"
         id="path5409"
         d="m 19.679623,255.58472 c -0.329338,-0.0317 -0.935558,0.14534 -1.225747,0.28329 -0.383758,0.18242 -0.687403,0.64754 -0.687456,1.08867 -6.2e-5,0.51133 0.201635,1.3095 0.447495,1.56743 0.32664,0.34267 1.006931,0.54157 1.459223,0.61929 0.42457,0.0729 1.149792,-0.10868 1.491649,-0.34379 0.344409,-0.23685 0.58865,-0.89579 0.590175,-1.37773 0.0017,-0.52738 -0.34799,-1.11543 -0.784737,-1.43306 -0.332373,-0.24173 -0.894281,-0.36611 -1.290602,-0.4041 z"
         style="fill:#9a6342;fill-opacity:1;stroke:none" />
      <path
         inkscape:transform-center-y="1.0389502"
         inkscape:transform-center-x="-1.4468176"
         sodipodi:nodetypes="csssssssssc"
         inkscape:connector-curvature="0"
         id="path5411"
         d="m 20.37353,256.7517 c -0.0116,-0.13967 -0.430102,-0.16478 -0.502922,-0.0981 -0.0066,0.006 -0.08774,0.18022 -0.139176,0.1818 -0.08412,0.003 -0.154338,-0.16648 -0.174726,-0.13702 -0.02129,0.0308 -0.110357,0.10301 -0.100716,0.16686 0.01613,0.10691 0.196367,0.19878 0.190311,0.22416 -0.02685,0.11242 -0.114777,0.28205 0.101266,0.34252 0.111673,0.0313 0.318951,-0.46002 0.358774,-0.50988 0.07429,-0.093 0.315681,0.0629 0.291464,-0.0539 -0.0081,-0.0388 -0.01534,-0.009 -0.02426,-0.11649 z"
         style="fill:#855639;fill-opacity:1;stroke:none" />
      <path
         inkscape:transform-center-y="0.99839874"
         inkscape:transform-center-x="1.1618607"
         sodipodi:nodetypes="cscc"
         inkscape:connector-curvature="0"
         id="path5413"
         d="m 19.697865,259.01893 c 0,0 0.591597,0.8461 0.990446,0.6175 0.108135,-0.062 -0.458543,-0.85059 -0.458543,-0.85059 z"
         style="fill:#ad742b;fill-opacity:1;stroke:none" />
      <path
         sodipodi:nodetypes="cssscsssc"
         inkscape:connector-curvature="0"
         id="path5415"
         d="m 21.697266,257.84391 c -0.01127,0.25307 -0.303897,0.79343 -0.481518,0.90943 -0.383902,0.25072 -0.553187,0.35876 -1.348253,0.41325 -0.410261,0.0281 -0.824878,-0.17625 -1.206091,-0.33382 -0.180556,-0.0746 -0.478409,-0.28653 -0.619095,-0.56734 0.290158,0.0568 0.442455,0.11818 0.499862,0.14587 0.382221,0.18435 0.799194,0.35381 1.210676,0.34807 0.435692,-0.006 0.887074,-0.13026 1.238192,-0.36976 0.240794,-0.16424 0.557308,-0.27538 0.706227,-0.5457 z"
         style="fill:#855639;fill-opacity:1;stroke:none" />
    </g>
    <g
       id="g5453"
       transform="matrix(0,4.7275229,-4.7275229,0,1115.8573,223.36243)">
      <g
         id="g5455"
         transform="matrix(1,0,0,0.9622626,0,9.8639383)">
        <path
           style="fill:#0d7225;fill-opacity:1;stroke:none"
           d="m 19.291835,261.31812 c 0.04984,0.0805 0.445253,0.0929 0.475599,0.003 0.03601,-0.10645 -0.08747,-0.56299 0.03303,-0.88363 0.109442,-0.29121 0.301574,-0.23271 0.520348,-0.38242 0.08701,-0.0595 0.277347,-0.27219 0.205019,-0.3489 -0.06796,-0.0721 -0.150467,-0.0472 -0.247218,-0.0259 -0.08658,0.019 -0.255285,0.10032 -0.251888,2.6e-4 0.0174,-0.51237 0.87449,-0.55258 1.205085,-0.86172 0.177976,-0.16643 0.370104,-0.38497 0.459087,-0.61067 0.0556,-0.14102 0.09979,-0.25789 0.04786,-0.29468 -0.05619,-0.0398 -0.384569,-0.10887 -0.532253,-0.0692 -0.130976,0.0351 -0.629273,0.18249 -0.722981,-0.0467 -0.15463,-0.37826 1.762648,-0.9449 1.821732,-1.78207 0.013,-0.18424 -0.258978,-0.31886 -0.458346,-0.2497 -0.584538,0.20278 -1.131296,0.60686 -1.107833,-0.0137 0.01757,-0.46466 1.0096,-1.03169 0.823658,-1.45789 -0.07734,-0.17728 -0.764615,0.12889 -0.95796,0.13417 -0.363457,0.01 -0.447379,-0.002 -0.411984,-0.17718 0.02867,-0.14155 0.215129,-0.357 0.283295,-0.57772 0.04991,-0.16161 0.188533,-0.6717 0.061,-0.77242 -0.1164,-0.0919 -0.459108,0.32604 -0.591933,0.31124 -0.16275,-0.0181 -0.09222,-0.50847 -0.436934,-0.5108 -0.53267,-0.004 -0.396056,0.57439 -0.548178,0.62846 -0.160927,0.0572 -0.40875,-0.46439 -0.576159,-0.43057 -0.352786,0.0713 -0.185578,0.62914 -0.06209,0.7936 0.117624,0.15665 0.417724,0.39591 0.398237,0.61992 -0.01428,0.16414 -0.1779,0.14081 -0.318301,0.11745 -0.144152,-0.024 -0.315885,-0.11555 -0.488785,-0.22376 -0.13974,-0.0875 -0.413022,-0.0722 -0.411223,0.0926 0.0023,0.21302 0.339194,0.63006 0.489667,0.78272 0.257176,0.26092 0.264339,0.41246 0.334449,0.75587 0.143204,0.70144 -1.269568,-0.24301 -1.448173,0.11424 -0.09018,0.18038 0.141096,0.5148 0.264534,0.67427 0.39152,0.50581 1.509477,0.77008 1.314006,1.19845 -0.0972,0.21301 -0.400835,0.078 -0.655865,0.0378 -0.18245,-0.0287 -0.466513,-0.10248 -0.558327,0.0578 -0.03272,0.0571 0.02617,0.35363 0.135776,0.55122 0.136182,0.24548 0.405687,0.39042 0.631494,0.5572 0.28612,0.21134 1.189091,0.2904 1.061006,0.62224 -0.04129,0.10697 6.21e-4,0.19281 -0.279447,0.15245 -0.110977,-0.016 -0.236573,-0.0563 -0.291576,0.0414 -0.05853,0.10397 0.141866,0.25398 0.247509,0.29635 0.196228,0.0787 0.118355,-0.0988 0.518807,0.33164 0.140202,0.15058 -0.04725,0.7266 0.02623,0.84536 z"
           id="path5457"
           inkscape:connector-curvature="0"
           sodipodi:nodetypes="csssssssssssssssssssssssssssssssssssssssssssc" />
        <path
           style="fill:#439211;fill-opacity:1;stroke:none"
           d="M 14.946841,29.683677 16.432784,29.858494 15.5587,1.4944597 z"
           id="path5459"
           inkscape:connector-curvature="0"
           transform="matrix(0.30050473,0,0,0.30050473,14.833701,252.35694)" />
      </g>
      <g
         transform="translate(-0.27579978,-0.47473352)"
         id="g5461">
        <path
           style="fill:#ad742b;fill-opacity:1;stroke:none"
           d="m 16.147102,21.755475 c 0,0 0.262741,3.425536 1.792406,3.445745 0.414685,0.0055 0.108162,-3.754781 0.108162,-3.754781 z"
           id="path5467"
           inkscape:connector-curvature="0"
           transform="matrix(0.30050473,0,0,0.30050473,14.833701,252.35694)"
           sodipodi:nodetypes="cscc" />
        <path
           sodipodi:nodetypes="cscc"
           inkscape:connector-curvature="0"
           id="path5597"
           d="m 19.872286,257.11029 c 0,0 -0.208019,-1.01124 -0.664787,-0.95935 -0.123875,0.0137 0.109911,1.12343 0.109911,1.12343 z"
           style="fill:#ad742b;fill-opacity:1;stroke:none" />
        <path
           style="fill:#9a6342;fill-opacity:1;stroke:none"
           d="m 19.65363,256.2647 c -0.333462,-0.008 -0.947275,0.19077 -1.241099,0.33438 -0.388564,0.18992 -0.696012,0.63187 -0.696066,1.033 -6.2e-5,0.46495 0.20416,1.1781 0.4531,1.39723 0.330731,0.29113 1.019542,0.42938 1.477499,0.47171 0.429888,0.0397 1.164192,-0.17084 1.510332,-0.40603 0.348722,-0.23694 0.596022,-0.85142 0.597566,-1.28975 0.0017,-0.47964 -0.352349,-0.99246 -0.794566,-1.25393 -0.336536,-0.19898 -0.905481,-0.27689 -1.306766,-0.28661 z"
           id="path5463"
           inkscape:connector-curvature="0"
           sodipodi:nodetypes="sssssssss" />
        <path
           style="fill:#855639;fill-opacity:1;stroke:none"
           d="m 20.229855,257.30171 c -0.04199,-0.10325 -0.455791,-0.0512 -0.512199,0.0113 -0.0052,0.005 -0.04602,0.15065 -0.09585,0.16056 -0.0815,0.0162 -0.187133,-0.0992 -0.200552,-0.0736 -0.01401,0.0268 -0.08504,0.0963 -0.06161,0.14278 0.03922,0.0778 0.235229,0.11645 0.234895,0.13659 -0.0015,0.0892 -0.05003,0.23194 0.174017,0.24085 0.115819,0.005 0.210135,-0.40062 0.238035,-0.44494 0.05205,-0.0827 0.32178,-0.006 0.272518,-0.09 -0.01642,-0.0279 -0.01685,-0.004 -0.04925,-0.0836 z"
           id="path5465"
           inkscape:connector-curvature="0"
           sodipodi:nodetypes="csssssssssc" />
        <path
           style="fill:#855639;fill-opacity:1;stroke:none"
           d="m 21.696544,258.19262 c -0.01141,0.23083 -0.307703,0.7405 -0.48755,0.8571 -0.38871,0.25203 -0.560115,0.36087 -1.365139,0.46022 -0.415399,0.0513 -0.835209,-0.1086 -1.221196,-0.228 -0.182818,-0.0566 -0.484401,-0.23057 -0.62685,-0.47711 0.293793,0.0335 0.447997,0.0798 0.506123,0.10134 0.387009,0.14369 0.809204,0.27167 1.22584,0.24066 0.441148,-0.0328 0.898184,-0.17401 1.253699,-0.41378 0.24381,-0.16442 0.564288,-0.28531 0.715073,-0.54043 z"
           id="path5469"
           inkscape:connector-curvature="0"
           sodipodi:nodetypes="cssscsssc" />
      </g>
    </g>
    <g
       transform="matrix(0,4.7275229,-4.7275229,0,1164.6248,223.36243)"
       id="g5471">
      <g
         id="g5473">
        <path
           sodipodi:nodetypes="csssssssssssssssssssssssssssssssssssssssssssc"
           inkscape:connector-curvature="0"
           id="path5475"
           d="m 19.291835,261.31812 c 0.04984,0.0805 0.445253,0.0929 0.475599,0.003 0.03601,-0.10645 -0.08747,-0.56299 0.03303,-0.88363 0.109442,-0.29121 0.438949,-0.2217 0.657723,-0.37141 0.08701,-0.0595 0.35228,-0.29814 0.279952,-0.37485 -0.06796,-0.0721 -0.237888,-0.0463 -0.334639,-0.025 -0.08658,0.019 -0.330217,0.13926 -0.32682,0.0392 0.0174,-0.51237 1.011865,-0.48671 1.34246,-0.79585 0.177976,-0.16643 0.383239,-0.29511 0.421621,-0.53574 0.02469,-0.15479 0.0873,-0.42367 0.03537,-0.46046 -0.05619,-0.0398 -0.359591,-0.0964 -0.507275,-0.0567 -0.130976,0.0351 -0.729183,0.17 -0.822891,-0.0592 -0.15463,-0.37826 1.762648,-0.9449 1.821732,-1.78207 0.013,-0.18424 -0.33391,-0.35633 -0.533278,-0.28717 -0.584538,0.20278 -1.056364,0.64433 -1.032901,0.0238 0.01757,-0.46466 0.897202,-0.9668 0.71126,-1.393 -0.07734,-0.17728 -0.764615,0.12889 -0.95796,0.13417 -0.363457,0.01 -0.397424,-0.0673 -0.362029,-0.24207 0.02867,-0.14155 0.171418,-0.21277 0.239584,-0.43349 0.04991,-0.16161 0.182289,-0.66545 0.05476,-0.76617 -0.1164,-0.0919 -0.459108,0.32604 -0.591933,0.31124 -0.16275,-0.0181 -0.04227,-0.58108 -0.386979,-0.58341 -0.53267,-0.004 -0.246192,0.66524 -0.398314,0.71931 -0.160927,0.0572 -0.30278,-0.42024 -0.470189,-0.38642 -0.352786,0.0713 -0.138962,0.6009 -0.06209,0.7936 0.07347,0.18418 0.250198,0.20953 0.230711,0.43354 -0.01428,0.16414 -0.1779,0.19272 -0.318301,0.16936 -0.144152,-0.024 -0.27173,-0.0979 -0.44463,-0.2061 -0.13974,-0.0875 -0.437999,-0.1371 -0.4362,0.0277 0.0023,0.21302 0.317252,0.6576 0.489667,0.78272 0.283669,0.20586 0.245161,0.40778 0.315271,0.75119 0.143204,0.70144 -1.207752,-0.21651 -1.386357,0.14074 -0.09018,0.18038 0.141096,0.5148 0.264534,0.67427 0.39152,0.50581 1.447661,0.74358 1.25219,1.17195 -0.0972,0.21301 -0.488256,0.065 -0.743286,0.0248 -0.18245,-0.0287 -0.404697,-0.076 -0.496511,0.0843 -0.03272,0.0571 -0.0113,0.41852 0.09831,0.61611 0.136182,0.24548 0.388026,0.31977 0.613833,0.48655 0.28612,0.21134 1.181515,0.25615 1.05343,0.58799 -0.04129,0.10697 -0.117578,0.10196 -0.397646,0.0616 -0.110977,-0.016 -0.237201,-0.0646 -0.292204,0.0331 -0.05853,0.10397 0.142494,0.26228 0.248137,0.30465 0.196228,0.0787 0.236554,-0.008 0.637006,0.42249 0.140202,0.15058 -0.04725,0.7266 0.02623,0.84536 z"
           style="fill:#0d7225;fill-opacity:1;stroke:none" />
        <path
           transform="matrix(0.30050473,0,0,0.30050473,14.833701,252.35694)"
           inkscape:connector-curvature="0"
           id="path5477"
           d="M 14.946841,29.683677 16.432784,29.858494 15.5587,1.4944597 z"
           style="fill:#439211;fill-opacity:1;stroke:none" />
      </g>
      <g
         id="g5479"
         transform="translate(-0.27579978,-0.51219959)">
        <path
           sodipodi:nodetypes="sssssssss"
           inkscape:connector-curvature="0"
           id="path5481"
           d="m 19.572759,255.59512 c -0.319542,0.0106 -0.907729,0.26545 -1.189287,0.44065 -0.372342,0.2317 -0.666955,0.73579 -0.667007,1.17693 -6e-5,0.51134 0.195637,1.28362 0.434184,1.50998 0.316924,0.30074 0.976979,0.41231 1.415817,0.43196 0.411942,0.0184 1.115591,-0.25628 1.447279,-0.53528 0.334164,-0.28107 0.57114,-0.97136 0.57262,-1.4535 0.0016,-0.52759 -0.337639,-1.07075 -0.761395,-1.33232 -0.322486,-0.19905 -0.86768,-0.2513 -1.252211,-0.23842 z"
           style="fill:#9a6342;fill-opacity:1;stroke:none" />
        <path
           sodipodi:nodetypes="csssssssssc"
           inkscape:connector-curvature="0"
           id="path5483"
           d="m 19.738116,256.49806 c -0.09491,-0.10314 -0.440672,0.13398 -0.457246,0.23128 -0.0017,0.009 0.04138,0.19613 0.0018,0.22895 -0.06481,0.0537 -0.224036,-0.0367 -0.222041,-8.9e-4 0.0021,0.0374 -0.02387,0.14906 0.02294,0.19355 0.07837,0.0745 0.277041,0.0364 0.287841,0.0601 0.04783,0.10522 0.08256,0.2931 0.290213,0.2082 0.107361,-0.0439 -0.03064,-0.55893 -0.02982,-0.62274 0.0015,-0.11902 0.287782,-0.14418 0.197003,-0.22145 -0.03022,-0.0257 -0.01738,0.003 -0.09067,-0.0771 z"
           style="fill:#855639;fill-opacity:1;stroke:none"
           inkscape:transform-center-x="-1.7443996"
           inkscape:transform-center-y="-0.53443586" />
        <path
           sodipodi:nodetypes="cscc"
           inkscape:connector-curvature="0"
           id="path5485"
           d="m 19.608413,258.94029 c 0,0 0.16648,1.0189 0.624994,0.98574 0.124302,-0.009 -0.06387,-1.12699 -0.06387,-1.12699 z"
           style="fill:#ad742b;fill-opacity:1;stroke:none"
           inkscape:transform-center-x="-2.184752"
           inkscape:transform-center-y="-1.1349429" />
        <path
           sodipodi:nodetypes="cssscsssc"
           inkscape:connector-curvature="0"
           id="path5487"
           d="m 21.530385,257.5953 c -0.01093,0.25452 -0.294857,0.83244 -0.467195,0.97125 -0.372483,0.3 -0.536732,0.42977 -1.308148,0.58633 -0.398058,0.0808 -0.800341,-0.0704 -1.170215,-0.17899 -0.175185,-0.0515 -0.464178,-0.22511 -0.60068,-0.48786 0.281528,0.0195 0.429294,0.0614 0.484994,0.0817 0.370852,0.13528 0.775421,0.25122 1.174664,0.19265 0.422731,-0.062 0.860687,-0.24415 1.20136,-0.52872 0.233632,-0.19515 0.540731,-0.34692 0.68522,-0.63636 z"
           style="fill:#855639;fill-opacity:1;stroke:none" />
      </g>
    </g>
    <g
       id="g5559"
       transform="matrix(0,4.405701,-4.7275229,0,1212.5515,181.72322)">
      <path
         style="fill:#0d7225;fill-opacity:1;stroke:none"
         d="m 19.291835,261.31812 c 0.04984,0.0805 0.445253,0.0929 0.475599,0.003 0.03601,-0.10645 -0.08747,-0.56299 0.03303,-0.88363 0.109442,-0.29121 0.101704,-0.3158 0.320478,-0.46551 0.08701,-0.0595 0.213591,-0.25399 0.141263,-0.3307 -0.06796,-0.0721 -0.08671,-0.0654 -0.183462,-0.0442 -0.08658,0.019 -0.188078,0.0951 -0.184681,-0.005 0.0174,-0.51237 0.719502,-0.36103 1.083599,-0.62958 0.197701,-0.14582 0.468084,-0.32589 0.506466,-0.56652 0.02469,-0.15479 0.04983,-0.34874 -0.0021,-0.38553 -0.05619,-0.0398 -0.384569,-0.10887 -0.532253,-0.0692 -0.130976,0.0351 -0.486259,0.1295 -0.579967,-0.0997 -0.15463,-0.37826 1.544702,-0.89191 1.603786,-1.72908 0.013,-0.18424 -0.258978,-0.31886 -0.458346,-0.2497 -0.584538,0.20278 -0.91335,0.55387 -0.889887,-0.0667 0.01757,-0.46466 0.688732,-0.86965 0.50279,-1.29585 -0.07734,-0.17728 -0.546669,0.0759 -0.740014,0.0812 -0.363457,0.01 -0.38236,0.0475 -0.346965,-0.12726 0.02867,-0.14155 0.127708,-0.1753 0.195874,-0.39602 0.04991,-0.16161 0.188533,-0.6717 0.061,-0.77242 -0.1164,-0.0919 -0.335922,0.20241 -0.468747,0.18761 -0.16275,-0.0181 0.02363,-0.69178 -0.321085,-0.69411 -0.53267,-0.004 -0.303047,0.63875 -0.455169,0.69282 -0.160927,0.0572 -0.40875,-0.46439 -0.576159,-0.43057 -0.352786,0.0713 -0.138962,0.6009 -0.06209,0.7936 0.07347,0.18418 0.140074,0.289 0.120587,0.51301 -0.01428,0.16414 -0.265006,0.0616 -0.405407,0.0382 -0.144152,-0.024 -0.315885,-0.11555 -0.488785,-0.22376 -0.13974,-0.0875 -0.437999,-0.1371 -0.4362,0.0277 0.0023,0.21302 0.350754,0.72004 0.523169,0.84516 0.283669,0.20586 0.34292,0.49413 0.41303,0.83754 0.143204,0.70144 -1.370075,-0.33668 -1.54868,0.0206 -0.09018,0.18038 0.127695,0.60223 0.251133,0.7617 0.39152,0.50581 1.623385,0.77632 1.427914,1.20469 -0.0972,0.21301 -0.54856,0.009 -0.80359,-0.0314 -0.18245,-0.0287 -0.466513,-0.10248 -0.558327,0.0578 -0.03272,0.0571 -0.0113,0.41852 0.09831,0.61611 0.136182,0.24548 0.465991,0.44662 0.691798,0.6134 0.28612,0.21134 1.345182,0.27703 1.217097,0.60887 -0.04129,0.10697 -0.161732,0.10196 -0.4418,0.0616 -0.110977,-0.016 -0.352621,-0.0386 -0.407624,0.0591 -0.05853,0.10397 0.20431,0.27994 0.309953,0.32231 0.196228,0.0787 0.487749,-0.12561 0.888201,0.30492 0.140202,0.15058 -0.04725,0.7266 0.02623,0.84536 z"
         id="path5561"
         inkscape:connector-curvature="0"
         sodipodi:nodetypes="csssssssssssssssssssssssssssssssssssssssssssc" />
      <path
         style="fill:#439211;fill-opacity:1;stroke:none"
         d="M 14.946841,29.683677 16.432784,29.858494 15.5587,1.4944597 z"
         id="path5563"
         inkscape:connector-curvature="0"
         transform="matrix(0.30050473,0,0,0.30050473,14.833701,252.35694)" />
    </g>
    <path
       sodipodi:nodetypes="sssssssss"
       inkscape:connector-curvature="0"
       id="path5567"
       d="m 6.6902833,268.56546 c 0.1498625,-1.33289 -0.6870982,-3.78636 -1.33926,-4.96081 -0.8623947,-1.55313 -3.0612601,-2.78204 -5.14671231,-2.78225 -2.41732429,-2.6e-4 -6.19069119,0.81605 -7.41006119,1.81109 -1.6199803,1.32197 -2.5602846,4.07522 -2.9277078,5.90572 -0.344636,1.7183 0.5137873,4.6534 1.6252752,6.03696 1.1197138,1.39388 4.2348678,2.38236 6.5132501,2.38853 2.49320107,0.007 5.2732209,-1.40837 6.774824,-3.17596 1.1427841,-1.34517 1.7307934,-3.61931 1.910392,-5.22328 z"
       style="fill:#9a6342;fill-opacity:1;stroke:none" />
    <path
       inkscape:transform-center-y="1.7829788"
       inkscape:transform-center-x="-1.2481679"
       sodipodi:nodetypes="csssssssssc"
       inkscape:connector-curvature="0"
       id="path5569"
       d="m -0.10293471,272.53406 c 0.63161107,0.20015 1.49303101,-1.58495 1.33221091,-2.02316 -0.014386,-0.0396 -0.6305505,-0.70735 -0.54508708,-0.93512 0.13795346,-0.37326 1.00521618,-0.37596 0.91299758,-0.51802 -0.096457,-0.14842 -0.2522811,-0.66761 -0.5488198,-0.74011 -0.49651518,-0.12142 -1.22194727,0.50174 -1.32206086,0.42968 -0.44340317,-0.31932 -1.02730804,-1.00847 -1.67974644,-0.17229 -0.3374316,0.43214 1.43891486,2.22096 1.58543746,2.48466 0.27328032,0.4919 -0.84200636,1.26755 -0.28773315,1.37141 0.18422656,0.0342 0.0668997,-0.0509 0.55299346,0.10311 z"
       style="fill:#855639;fill-opacity:1;stroke:none" />
    <path
       inkscape:transform-center-y="0.99839874"
       inkscape:transform-center-x="1.1618607"
       sodipodi:nodetypes="cscc"
       inkscape:connector-curvature="0"
       id="path5571"
       d="m -8.9188031,268.70091 c 0,0 -3.9999569,2.79679 -2.9192449,4.68235 0.293106,0.51121 3.6871992,-1.83379 3.6871992,-1.83379 z"
       style="fill:#ad742b;fill-opacity:1;stroke:none" />
    <path
       sodipodi:nodetypes="cssscsssc"
       inkscape:connector-curvature="0"
       id="path5573"
       d="m -3.9900892,276.7312 c -1.1963942,-0.0456 -3.7509584,-1.22992 -4.2993511,-1.94879 -1.1852845,-1.55371 -1.6960461,-2.23884 -1.9536487,-5.4566 -0.132844,-1.6604 0.8332258,-3.33842 1.5781416,-4.88126 0.3526732,-0.73074 1.3545771,-1.9362 2.6821128,-2.50558 -0.2685233,1.17432 -0.5586987,1.79069 -0.6896038,2.02303 -0.8715188,1.54691 -1.6726448,3.23447 -1.6455089,4.89981 0.028365,1.76331 0.6158072,3.59014 1.7480489,5.01117 0.7764484,0.97454 1.3018653,2.25552 2.5798092,2.85822 z"
       style="fill:#855639;fill-opacity:1;stroke:none" />
    <g
       id="g5579"
       transform="matrix(0,4.7275229,-4.7275229,0,1212.2175,223.36243)">
      <g
         id="g5581">
        <path
           style="fill:#0d7225;fill-opacity:1;stroke:none"
           d="m 19.291835,261.31812 c 0.04984,0.0805 0.445253,0.0929 0.475599,0.003 0.03601,-0.10645 -0.08747,-0.56299 0.03303,-0.88363 0.109442,-0.29121 0.491934,-0.21287 0.710708,-0.36258 0.08701,-0.0595 0.308126,-0.35112 0.235798,-0.42783 -0.06796,-0.0721 -0.237888,-0.0463 -0.334639,-0.025 -0.08658,0.019 -0.339048,0.18341 -0.335651,0.0833 0.0174,-0.51237 1.259129,-0.37191 1.589724,-0.68105 0.177976,-0.16643 0.383239,-0.29511 0.421621,-0.53574 0.02469,-0.15479 0.06081,-0.51198 0.0089,-0.54877 -0.05619,-0.0398 -0.359591,-0.0964 -0.507275,-0.0567 -0.130976,0.0351 -0.79983,0.18766 -0.893538,-0.0415 -0.15463,-0.37826 1.842126,-0.95373 1.90121,-1.7909 0.013,-0.18424 -0.33391,-0.35633 -0.533278,-0.28717 -0.584538,0.20278 -1.135842,0.65316 -1.112379,0.0326 0.01757,-0.46466 0.941356,-1.01095 0.755414,-1.43715 -0.07734,-0.17728 -0.799938,0.12889 -0.993283,0.13417 -0.363457,0.01 -0.556379,-0.0673 -0.520984,-0.24207 0.02867,-0.14155 0.224403,-0.2216 0.292569,-0.44232 0.04991,-0.16161 0.226443,-0.70077 0.09891,-0.80149 -0.1164,-0.0919 -0.503262,0.36136 -0.636087,0.34656 -0.16275,-0.0181 -0.09525,-0.57225 -0.439964,-0.57458 -0.53267,-0.004 -0.157884,0.71823 -0.310006,0.7723 -0.160927,0.0572 -0.276287,-0.29661 -0.443696,-0.26279 -0.352786,0.0713 -0.165455,0.47727 -0.08858,0.66997 0.07347,0.18418 0.16189,0.15654 0.142403,0.38055 -0.01428,0.16414 -0.01011,0.26337 -0.150515,0.24001 -0.144152,-0.024 -0.201083,-0.01 -0.373983,-0.11779 -0.13974,-0.0875 -0.437999,-0.1371 -0.4362,0.0277 0.0023,0.21302 0.246605,0.56929 0.41902,0.69441 0.283669,0.20586 0.245161,0.40778 0.315271,0.75119 0.143204,0.70144 -1.137105,-0.21651 -1.31571,0.14074 -0.09018,0.18038 0.141096,0.5148 0.264534,0.67427 0.39152,0.50581 1.377014,0.74358 1.181543,1.17195 -0.0972,0.21301 -0.42644,0.065 -0.68147,0.0248 -0.18245,-0.0287 -0.404697,-0.076 -0.496511,0.0843 -0.03272,0.0571 0.05052,0.37436 0.160126,0.57195 0.136182,0.24548 0.388026,0.31977 0.613833,0.48655 0.28612,0.21134 0.890097,0.22966 0.762012,0.5615 -0.04129,0.10697 -0.02927,0.14611 -0.309338,0.10575 -0.110977,-0.016 -0.237201,-0.0646 -0.292204,0.0331 -0.05853,0.10397 0.124833,0.21813 0.230476,0.2605 0.196228,0.0787 0.165907,-0.008 0.566359,0.42249 0.140202,0.15058 -0.04725,0.7266 0.02623,0.84536 z"
           id="path5583"
           inkscape:connector-curvature="0"
           sodipodi:nodetypes="csssssssssssssssssssssssssssssssssssssssssssc" />
        <path
           style="fill:#439211;fill-opacity:1;stroke:none"
           d="M 14.946841,29.683677 16.432784,29.858494 15.5587,1.4944597 z"
           id="path5585"
           inkscape:connector-curvature="0"
           transform="matrix(0.30050473,0,0,0.30050473,14.833701,252.35694)" />
      </g>
      <g
         transform="translate(-0.27579978,-0.51219959)"
         id="g5587">
        <path
           style="fill:#9a6342;fill-opacity:1;stroke:none"
           d="m 19.369435,255.59512 c -0.284542,0.0106 -0.808304,0.26545 -1.059022,0.44065 -0.331558,0.2317 -0.593902,0.73579 -0.593948,1.17693 -5.3e-5,0.51134 0.174208,1.28362 0.386627,1.50998 0.28221,0.30074 0.869968,0.41231 1.260739,0.43196 0.366821,0.0184 0.993397,-0.25628 1.288755,-0.53528 0.297562,-0.28107 0.508581,-0.97136 0.509899,-1.4535 0.0014,-0.52759 -0.300656,-1.07075 -0.677997,-1.33232 -0.287164,-0.19905 -0.772641,-0.2513 -1.115053,-0.23842 z"
           id="path5589"
           inkscape:connector-curvature="0"
           sodipodi:nodetypes="sssssssss" />
        <path
           inkscape:transform-center-y="-1.1391716"
           inkscape:transform-center-x="-1.6235017"
           style="fill:#855639;fill-opacity:1;stroke:none"
           d="m 19.019084,256.60407 c -0.134183,-0.0405 -0.311202,0.33955 -0.275965,0.43175 0.0031,0.009 0.135413,0.14779 0.118037,0.19619 -0.02847,0.0792 -0.211543,0.0824 -0.191606,0.1122 0.02084,0.0311 0.05529,0.14047 0.118225,0.15496 0.105373,0.0243 0.257022,-0.10962 0.278378,-0.0947 0.09471,0.0663 0.220202,0.21033 0.355772,0.0316 0.07009,-0.0924 -0.310756,-0.46558 -0.342516,-0.52093 -0.05926,-0.10323 0.174391,-0.27055 0.05693,-0.29088 -0.03909,-0.007 -0.01343,0.0114 -0.117284,-0.0202 z"
           id="path5591"
           inkscape:connector-curvature="0"
           sodipodi:nodetypes="csssssssssc" />
        <path
           style="fill:#ad742b;fill-opacity:1;stroke:none"
           d="m 19.57819,258.95752 c 0,0 0.203793,1.0121 0.66078,0.96212 0.123888,-0.0135 -0.105221,-1.12388 -0.105221,-1.12388 z"
           id="path5593"
           inkscape:connector-curvature="0"
           sodipodi:nodetypes="cscc"
           inkscape:transform-center-x="-2.1217503"
           inkscape:transform-center-y="-1.0397562" />
        <path
           style="fill:#855639;fill-opacity:1;stroke:none"
           d="m 21.112637,257.5953 c -0.0097,0.25452 -0.262561,0.83244 -0.416022,0.97125 -0.331684,0.3 -0.477942,0.42977 -1.164863,0.58633 -0.354458,0.0808 -0.712678,-0.0704 -1.042039,-0.17899 -0.155996,-0.0515 -0.413335,-0.22511 -0.534886,-0.48786 0.250692,0.0195 0.382272,0.0614 0.431872,0.0817 0.330231,0.13528 0.690487,0.25122 1.046,0.19265 0.376428,-0.062 0.766413,-0.24415 1.069772,-0.52872 0.208041,-0.19515 0.481503,-0.34692 0.610166,-0.63636 z"
           id="path5595"
           inkscape:connector-curvature="0"
           sodipodi:nodetypes="cssscsssc" />
      </g>
    </g>
  </g>
</svg>
