<?xml version="1.0" encoding="UTF-8" standalone="no"?>
<!-- Created with Inkscape (http://www.inkscape.org/) -->

<svg
   xmlns:dc="http://purl.org/dc/elements/1.1/"
   xmlns:cc="http://creativecommons.org/ns#"
   xmlns:rdf="http://www.w3.org/1999/02/22-rdf-syntax-ns#"
   xmlns:svg="http://www.w3.org/2000/svg"
   xmlns="http://www.w3.org/2000/svg"
   xmlns:sodipodi="http://sodipodi.sourceforge.net/DTD/sodipodi-0.dtd"
   xmlns:inkscape="http://www.inkscape.org/namespaces/inkscape"
   width="1920"
   height="1080"
   id="svg3830"
   version="1.1"
   inkscape:version="0.48.4 r9939"
   sodipodi:docname="stage-select-volcano.svg"
   inkscape:export-filename="/home/cromo/projects/ludum-dare-34/art/stage-select-volcano.png"
   inkscape:export-xdpi="90"
   inkscape:export-ydpi="90">
  <defs
     id="defs3832" />
  <sodipodi:namedview
     id="base"
     pagecolor="#ffffff"
     bordercolor="#666666"
     borderopacity="1.0"
     inkscape:pageopacity="0.0"
     inkscape:pageshadow="2"
     inkscape:zoom="1.4142136"
     inkscape:cx="1482.564"
     inkscape:cy="544.59583"
     inkscape:document-units="px"
     inkscape:current-layer="layer1"
     showgrid="false"
     showguides="false"
     inkscape:guide-bbox="true"
     inkscape:snap-to-guides="false"
     borderlayer="true"
     inkscape:window-width="1920"
     inkscape:window-height="1056"
     inkscape:window-x="1920"
     inkscape:window-y="0"
     inkscape:window-maximized="1">
    <sodipodi:guide
       orientation="1,0"
       position="960,-3.9852399"
       id="guide3840" />
    <sodipodi:guide
       orientation="0,1"
       position="2355.8397,837.8824"
       id="guide4537" />
    <sodipodi:guide
       orientation="0,1"
       position="2305.1159,240.46849"
       id="guide4539" />
    <sodipodi:guide
       orientation="1,0"
       position="548.56874,-131.50621"
       id="guide4543" />
    <sodipodi:guide
       orientation="1,0"
       position="1363.9072,-202.89529"
       id="guide4545" />
  </sodipodi:namedview>
  <metadata
     id="metadata3835">
    <rdf:RDF>
      <cc:Work
         rdf:about="">
        <dc:format>image/svg+xml</dc:format>
        <dc:type
           rdf:resource="http://purl.org/dc/dcmitype/StillImage" />
        <dc:title></dc:title>
      </cc:Work>
    </rdf:RDF>
  </metadata>
  <g
     inkscape:label="Layer 1"
     inkscape:groupmode="layer"
     id="layer1"
     transform="translate(0,27.637817)">
    <path
       style="fill:#3c3e48;stroke:none;stroke-width:1px;stroke-linecap:butt;stroke-linejoin:miter;stroke-opacity:1;fill-opacity:1"
       d="M -140.89951,-54.71069 -178.47271,642.2722 2066.5261,621.60694 1998.8943,-58.46801 z"
       id="path4354"
       inkscape:connector-curvature="0"
       transform="translate(0,-27.637817)" />
    <path
       sodipodi:type="arc"
       style="fill:#edc295;fill-opacity:1;stroke:none"
       id="path4366"
       sodipodi:cx="1240.855"
       sodipodi:cy="231.78497"
       sodipodi:rx="123.05224"
       sodipodi:ry="123.05224"
       d="m 1363.9072,231.78497 a 123.05224,123.05224 0 1 1 -246.1045,0 123.05224,123.05224 0 1 1 246.1045,0 z"
       transform="matrix(0.61907537,0,0,0.61907537,292.47909,125.27867)" />
    <path
       style="fill:#1f1c1f;fill-opacity:1;stroke:none"
       d="M -76.953563,560.73062 C -76.953563,560.73062 643.39483,540 960,540 c 316.6052,0 1034.8991,17.9956 1034.8991,17.9956 l 38.9016,597.724 -2130.77487,-31.882 z"
       id="path3842"
       inkscape:connector-curvature="0"
       transform="translate(0,-27.637817)"
       sodipodi:nodetypes="cscccc" />
    <path
       style="fill:#1f1c1f;fill-opacity:1;stroke:none"
       d="m 354.9676,576.53997 c 0,0 46.61916,-142.82685 70.71068,-148.49242 30.16457,-7.09376 46.80732,51.80996 77.78175,50.91169 15.83282,-0.45916 29.6338,-36.56258 45.25483,-33.94112 30.43255,5.10707 48.08326,74.95331 48.08326,74.95331 l -97.58073,110.30866 z"
       id="path4557"
       inkscape:connector-curvature="0"
       transform="translate(0,-27.637817)"
       sodipodi:nodetypes="csssccc" />
    <path
       style="fill:#1a161a;fill-opacity:1;stroke:none"
       d="m -138.59293,436.53283 c 34.04172,-47.19046 97.620312,-73.87002 155.563493,-79.19596 34.756527,-3.1947 66.920786,19.86229 100.409167,29.69848 22.6149,6.64244 44.31825,19.25741 67.88225,19.79899 16.00271,0.36779 30.80573,-9.17415 46.66904,-11.3137 15.42384,-2.08027 31.407,1.63408 46.66905,-1.41422 20.77664,-4.14973 39.37524,-29.55699 59.39697,-22.62741 15.58535,5.39414 19.79899,31.11269 25.45585,42.4264 5.65685,11.31371 26.99888,81.07348 52.3259,114.5513 19.77429,26.13809 74.95332,63.63961 74.95332,63.63961 L 390.32294,705.23341 108.89444,641.5938 -168.29141,633.10851 c 0,0 -9.07113,-142.83116 29.69848,-196.57568 z"
       id="path4555"
       inkscape:connector-curvature="0"
       transform="translate(0,-27.637817)"
       sodipodi:nodetypes="sssssssssccccs" />
    <path
       style="fill:#1f1c1f;fill-opacity:1;stroke:none"
       d="m 967.32208,546.84149 c 1.80193,-42.63382 49.25282,-89.34799 91.92392,-89.09546 17.5203,0.10368 96.9525,108.55616 155.5634,80.61017 10.0153,-4.77537 24.2367,-20.90987 32.527,-28.28427 14.5097,-12.9066 32.3524,-8.54388 50.9116,-2.82842 10.5561,3.25085 15.3722,16.70555 25.4559,21.2132 14.7897,6.61132 32.0083,9.08102 48.0833,7.07107 6.0809,-0.76033 10.8459,-7.28201 16.9705,-7.07107 8.4277,0.29026 14.9908,7.73692 22.6274,11.31371 7.4555,3.49196 19.8249,2.15847 22.6275,9.89949 4.3061,11.8936 -16.9706,33.94113 -16.9706,33.94113 l -62.2254,-18.38478 -42.4264,9.8995 -28.2843,16.97056 -22.6274,31.1127 -28.2843,-19.79899 -41.0122,43.84062 -52.3259,11.31371 -57.9827,19.79899 c 0,0 -117.00634,-73.43595 -114.55132,-131.52186 z"
       id="path4559"
       inkscape:connector-curvature="0"
       transform="translate(0,-27.637817)"
       sodipodi:nodetypes="sssssssssscccccccccs" />
    <path
       style="fill:#1a161a;fill-opacity:1;stroke:none"
       d="m 657.60931,363.64018 c -92.076,104.74293 -179.70251,214.13014 -309.71277,299.81328 0,0 114.5533,92.92066 182.1909,89.58073 60.35012,-2.98008 304.08565,29.05771 395.97985,14.14214 23.9797,-3.89221 55.0574,8.03738 84.43751,-2.97423 12.5889,-4.71828 0.2333,-44.79296 12.556,-49.96938 13.1904,-5.54091 49.0122,2.8016 61.0027,-2.66016 43.1879,-19.67235 75.5916,-36.80539 75.5916,-36.80539 -128.619,-87.74366 -181.62871,-218.71639 -319.61221,-316.78384 -42.69482,-30.344 -139.89494,-42.73384 -182.43358,5.65685 z"
       id="path4547"
       inkscape:connector-curvature="0"
       sodipodi:nodetypes="scssssscss" />
    <path
       style="fill:#1a161a;fill-opacity:1;stroke:none"
       d="m 845.69973,500.17244 c -1.288,-26.40511 127.43872,-60.20208 152.73502,-67.88225 23.40795,-7.10687 117.25525,143.33888 140.00715,134.35029 21.2491,-8.39489 8.4342,-48.39938 25.4559,-63.63961 4.3437,-3.88912 62.9431,11.11256 72.1249,45.25483 5.3209,19.78551 40.6607,59.80096 26.87,74.95332 -5.5478,6.0955 -43.9441,-7.71532 -63.0367,-2.16776 -17.5611,5.10254 17.0026,31.04554 3.7787,35.14324 -29.4285,9.11911 -65.1928,13.69357 -65.1928,13.69357 l -41.0122,22.62741 c 0,0 -249.92477,-155.32453 -251.72997,-192.33304 z"
       id="path4561"
       inkscape:connector-curvature="0"
       transform="translate(0,-27.637817)"
       sodipodi:nodetypes="ssssssssccs" />
    <path
       style="fill:#c68e00;fill-opacity:1;stroke:none"
       d="m 766.50375,345.25541 c -15.14128,-3.60054 -31.5219,-4.98998 -46.66905,-1.41422 -13.54802,3.19825 -26.32473,10.59662 -36.76955,19.79899 -6.08539,5.36151 -10.51143,12.5467 -14.14214,19.79899 -9.74405,19.46359 -11.60726,42.05926 -19.79899,62.2254 -3.96704,9.76594 -8.58003,19.33027 -14.14213,28.28427 -21.84002,35.15857 -45.865,69.55041 -74.95332,98.99495 -35.65272,36.08932 -75.79776,74.25358 -117.70815,102.83809 -19.03517,12.98272 -38.88058,24.79017 -61.89697,25.85534 -21.90573,1.01377 -37.51718,-26.81337 -59.39697,-28.28427 -38.52507,-2.58991 -95.32613,-0.23135 -110.30866,35.35534 -13.08854,31.08807 15.21032,75.17653 45.25483,90.50967 38.72513,19.76327 96.28489,7.76797 128.69344,-21.2132 14.23913,-12.73327 5.00052,-39.2338 15.55635,-55.15433 11.67605,-17.61006 32.80633,-26.64228 49.49747,-39.59798 39.62219,-30.75484 81.39317,-66.40295 116.20815,-102.50967 30.31753,-31.44241 50.87948,-58.89417 73.95332,-95.98023 8.24808,-13.25696 17.02812,-24.63943 23.12742,-39.0122 7.51421,-17.70696 6.4843,-50.12834 23.47056,-59.15432 10.00814,-5.31804 19.27703,11.02668 30.52691,12.39949 17.80608,2.17286 45.89108,-0.13748 53.74012,-2.82843 5.24791,-1.79918 7.22569,20.77106 1.85602,35.59085 -7.24602,19.99837 -22.53521,34.50362 -10.94181,37.1909 17.26237,4.00132 23.28954,-19.52752 24.95585,-37.16905 1.30374,-13.80299 -2.1917,-41.00229 -1.72792,-44.09798 22.75246,-9.65051 31.78995,10.33495 43.84066,21.21321 19.325,17.44481 48.4985,42.11527 60.8111,65.05382 9.5763,17.84082 22.4363,19.38649 21.2132,39.59798 -1.138,18.8041 -27.8005,32.16904 -29.6985,50.91168 -1.5176,14.98619 4.0129,32.74982 15.5564,42.42641 16.5118,13.84135 44.1377,2.15407 63.6396,11.31371 14.5323,6.82555 26.5766,18.70774 36.7695,31.1127 9.24361,11.2497 14.85261,25.08631 21.21321,38.18376 6.9225,14.25449 5.2585,28.68902 9.8996,43.84062 2.816,9.19319 -1.1614,32.81493 -1.4142,42.42641 -0.6011,22.85887 -25.264,45.15822 -16.9706,66.46804 10.0058,25.70983 42.8034,37.55879 69.2965,45.25484 103.6751,30.1169 188.1375,-28.44443 292.7422,-55.15433 87.8576,-22.43367 227.6389,19.91646 284.2569,-50.9117 17.9935,-22.50954 27.1914,-85.84158 9.8995,-108.89444 -27.3674,-36.48517 -240.401,-38.5296 -329.5118,-33.94112 -71.3866,3.67583 -103.2235,21.48785 -145.664,49.49747 -26.2459,17.32164 -56.2358,25.72708 -87.6812,25.45585 -21.3013,-0.18374 -39.8183,-0.98144 -56.5686,-14.14214 -30.3344,-23.83367 -38.8703,-70.95569 -72.12481,-90.50967 -14.8307,-8.72062 -36.1465,0.3459 -50.9117,-8.48528 -11.248,-6.72754 -23.3566,-18.0242 -24.0417,-31.1127 -0.9848,-18.81274 29.8613,-29.24547 29.6985,-48.08326 -0.3244,-37.52785 -38.7275,-64.40835 -60.8112,-94.75231 -10.0514,-13.8111 -38.5281,-23.60537 -32.5269,-39.59797 4.0296,-10.73859 42.1084,1.67379 32.9411,-5.21936 l -30.4251,-22.87742 c -8.2289,-6.18749 -19.12263,9.11198 -29.38603,8.29779 -15.55739,-1.23416 -27.24351,-16.18855 -42.42641,-19.79899 z"
       id="path4549"
       inkscape:connector-curvature="0"
       sodipodi:nodetypes="sssssssssssssssssssssssscsssssssssssssssssssssssssssss" />
    <path
       style="fill:#1a161a;fill-opacity:1;stroke:none"
       d="m 874.75879,579.18405 4.8957,12.12031 c 0,0 38.9372,0.52525 39.0867,0.18726 0.1496,-0.338 -2.4086,-13.59839 -2.4086,-13.59839 z"
       id="path4553"
       inkscape:connector-curvature="0" />
    <path
       style="fill:#353035;fill-opacity:1;stroke:none"
       d="M 849.30499,589.43292 C 813.76577,627.16426 753.55608,714.52387 723.35158,760.52318 702.68507,791.9968 599.97837,876.90302 582.30011,918.10541 559.57515,971.07007 290.46074,1224.0097 223.15544,1241.512 c -102.611,26.6834 -473.52893,69.272 -380.18333,-17.9829 38.1289,-35.6411 104.014091,-65.0355 224.758091,-105.4923 91.111699,-30.5282 400.279769,-195.41676 454.882669,-233.06723 71.5307,-49.32269 167.57777,-98.09514 188.5767,-124.88767 14.95714,-19.08381 89.58576,-123.39169 133.25152,-172.85498 3.0538,-3.45935 25.9897,-5.73534 35.2951,-6.19331 8.2144,-0.40427 38.4274,-2.65531 60.5534,-1.60744 10.8415,0.51344 55.9366,-17.46778 66.07731,-22.57174 6.1066,-3.07353 18.0977,-7.7869 19.0424,-8.29187 1.1037,-0.58993 3.0696,1.3725 2.4289,1.86013 -9.1111,6.93439 -78.31471,31.88994 -82.18081,33.15543 -3.8842,1.27143 -91.867,1.09274 -96.3524,5.8548 z"
       id="path4352"
       inkscape:connector-curvature="0"
       sodipodi:nodetypes="ssssssssssssssss" />
    <path
       style="fill:#fbe0cb;fill-opacity:1;stroke:none"
       d="m 688.722,350.91226 c 3.22716,10.03477 4.76668,23.46641 14.14214,28.28427 18.68048,9.59953 41.23262,-9.25591 62.2254,-9.89949 14.67492,-0.44989 29.87616,8.77579 43.84062,4.24264 15.56433,-5.05251 23.25073,-23.30637 36.76953,-32.52692 18.8106,-12.82983 21.1995,-15.4592 22.6274,-38.18376 1.5744,-25.05481 -9.8816,-22.20633 -4.2426,-46.66905 8.7752,-38.06858 57.5017,-0.066 96.1665,-5.65685 82.47561,-11.92587 134.17861,-65.8695 247.48741,-35.35534 26.7017,7.19078 11.9845,61.45133 36.7695,72.12489 84.3934,36.34366 172.9664,-69.27267 264.458,-77.78175 51.4222,-4.78247 103.6026,26.14596 154.1493,15.55635 20.6597,-4.32823 34.6267,-26.19621 55.1543,-31.1127 31.6622,-7.58327 147.8129,-6.96557 171.1198,-29.69849 54.6784,-53.33173 86.4621,-175.16744 35.3554,-231.931016 -74.3728,-82.604934 -427.0925,-4.242647 -444.0631,-4.242647 -16.9706,0 -101.0651,94.595301 -165.463,110.308662 -193.0417,47.102977 -260.8963,-77.927592 -452.54831,-25.455842 -42.98063,11.767515 -51.17324,27.204627 -62.22542,73.539103 -5.72318,23.99353 0.99952,32.38411 -8.48528,55.15433 -10.08419,24.20916 -32.15854,-15.56098 -48.08326,21.2132 -5.50814,50.81246 -19.15753,78.75928 -43.84062,123.03659 -5.38001,10.05264 -14.92656,18.48144 -16.97056,29.69848 -2.1396,11.74166 2.00289,23.99343 5.65685,35.35534 z"
       id="path4551"
       inkscape:connector-curvature="0"
       sodipodi:nodetypes="ssssssssssssssssssssccss" />
    <path
       style="fill:#1f1c1f;fill-opacity:1;stroke:none"
       d="m 1719.6837,553.20545 c 53.4819,1.57299 59.5548,-65.93237 79.9031,-65.05383 15.4865,0.66863 8.3573,12.26841 23.3345,16.26346 8.594,2.29237 12.3338,10.09039 21.2132,10.6066 9.0401,0.52556 12.4394,19.21134 21.2132,16.97056 30.1978,-7.71239 6.8822,-75.31687 36.0624,-86.26702 14.5077,-5.44415 27.863,50.07583 35.3553,63.6396 22.9185,41.49055 -8.4852,98.28785 -8.4852,98.28785 z"
       id="path4563"
       inkscape:connector-curvature="0"
       transform="translate(0,-27.637817)"
       sodipodi:nodetypes="csssssscc" />
  </g>
</svg>
