<?xml version="1.0" encoding="UTF-8" standalone="no"?>
<!-- Created with Inkscape (http://www.inkscape.org/) -->

<svg
   xmlns:dc="http://purl.org/dc/elements/1.1/"
   xmlns:cc="http://creativecommons.org/ns#"
   xmlns:rdf="http://www.w3.org/1999/02/22-rdf-syntax-ns#"
   xmlns:svg="http://www.w3.org/2000/svg"
   xmlns="http://www.w3.org/2000/svg"
   xmlns:sodipodi="http://sodipodi.sourceforge.net/DTD/sodipodi-0.dtd"
   xmlns:inkscape="http://www.inkscape.org/namespaces/inkscape"
   width="569.31561"
   height="208.62038"
   id="svg2"
   version="1.1"
   inkscape:version="0.48.4 r9939"
   sodipodi:docname="title-logo.svg"
   inkscape:export-filename="/home/cromo/projects/ludum-dare-34/art/title-logo.png"
   inkscape:export-xdpi="90"
   inkscape:export-ydpi="90">
  <defs
     id="defs4" />
  <sodipodi:namedview
     id="base"
     pagecolor="#ffffff"
     bordercolor="#666666"
     borderopacity="1.0"
     inkscape:pageopacity="0.0"
     inkscape:pageshadow="2"
     inkscape:zoom="1.4300681"
     inkscape:cx="453.42753"
     inkscape:cy="61.59352"
     inkscape:document-units="px"
     inkscape:current-layer="layer1"
     showgrid="false"
     fit-margin-top="0"
     fit-margin-left="0"
     fit-margin-right="0"
     fit-margin-bottom="0"
     inkscape:window-width="1920"
     inkscape:window-height="1056"
     inkscape:window-x="1920"
     inkscape:window-y="0"
     inkscape:window-maximized="1" />
  <metadata
     id="metadata7">
    <rdf:RDF>
      <cc:Work
         rdf:about="">
        <dc:format>image/svg+xml</dc:format>
        <dc:type
           rdf:resource="http://purl.org/dc/dcmitype/StillImage" />
        <dc:title></dc:title>
      </cc:Work>
    </rdf:RDF>
  </metadata>
  <g
     inkscape:label="Layer 1"
     inkscape:groupmode="layer"
     id="layer1"
     transform="translate(122.96674,-131.92803)">
    <g
       id="g3798"
       transform="matrix(3.3277346,0,0,3.3277346,-172.32936,-531.22851)">
      <path
         sodipodi:nodetypes="ssssscsssss"
         inkscape:connector-curvature="0"
         id="path3794"
         d="m 17.553214,208.4792 c -1.810876,-0.11047 -1.55825,2.00784 -1.977827,3.62671 -0.732971,2.82806 16.746819,3.59309 16.811529,6.57341 0.05433,2.50249 2.771017,21.61187 18.294899,31.05364 33.51134,20.38193 75.768825,-13.13864 117.433485,1.36002 12.11691,4.21649 8.20603,2.52106 17.80044,10.88011 -1.36638,-24.48863 -10.48417,-30.43607 -29.6674,-41.48042 -9.81137,-5.6487 -47.44271,-5.93502 -58.214317,-8.21586 -15.299549,-3.23962 -22.113337,-10.54721 -34.001878,-12.41102 -21.14366,-3.31476 -27.420085,8.37906 -29.420174,12.46678 -1.210974,2.47497 -14.158817,-3.67646 -17.058757,-3.85337 z"
         style="fill:#2a7e10;fill-opacity:1;stroke:none" />
      <path
         sodipodi:nodetypes="cscscc"
         inkscape:connector-curvature="0"
         id="path3796"
         d="m 18.397305,208.30954 c 22.902982,8.37204 47.900092,14.07948 72.582734,17.56821 46.048011,6.50858 67.271031,-8.83324 93.205101,32.13968 -21.71416,-36.66318 -77.12279,-26.40134 -93.452329,-28.67848 -21.376781,-2.98098 -52.78672,-10.09753 -75.899109,-16.06984 0.809436,-1.94406 0.859023,-5.75293 3.563603,-4.95957 z"
         style="fill:#3a630f;fill-opacity:1;stroke:none" />
      <g
         transform="translate(0.40820775,-35.105867)"
         id="text3753"
         style="font-size:40px;font-style:normal;font-variant:normal;font-weight:600;font-stretch:normal;text-align:start;line-height:125%;letter-spacing:0px;word-spacing:0px;writing-mode:lr-tb;text-anchor:start;fill:#a0e88a;fill-opacity:1;stroke:none;font-family:FreeSans;-inkscape-font-specification:FreeSans Semi-Bold">
        <path
           style="fill:#a0e88a;fill-opacity:1;stroke:none"
           sodipodi:nodetypes="csssssssc"
           inkscape:connector-curvature="0"
           id="path3760"
           d="m 56.824028,250.8831 0,24.16 c 0,7.07391 -6,4.44875 -6,0 l 0,-24.16 c 0,-2.31306 -2.961221,-0.81845 -8.84,0 -3.429944,0.47752 -2.749306,-3.34161 0,-5 6.407883,-3.86526 15.071566,-3.55383 23.36,0 2.515621,1.07862 9.504568,5.0289 0,5 -3.312325,-0.0101 -6.389339,-1.77335 -8.52,0" />
        <path
           style="fill:#a0e88a;fill-opacity:1;stroke:none"
           sodipodi:nodetypes="csscccccssssscsccccssc"
           inkscape:connector-curvature="0"
           id="path3762"
           d="m 66.382928,278.12561 c -1.736767,0 -3.139063,-0.5799 -4.18935,-1.76 -1.062021,-1.19328 -1.58421,-2.77333 -1.584208,-4.72 -2e-6,-3.81332 1.871362,-6.04398 5.597535,-6.8 1.687265,-0.31663 3.406949,-0.58377 4.893442,-1.12 0.67411,-0.39433 0.879591,-1.08653 1.020934,-1.8 0,-1.43998 -1.130172,-3.79283 -3.031209,-3.79283 -2.332346,-0.0959 -2.625006,4.54341 -3.305623,4.59283 -1.625965,0.75913 -3.862317,1.87302 -4.258167,-0.18542 -0.205578,-1.06901 2.162131,-8.72329 7.278541,-8.72331 5.186799,2e-5 7.016756,3.79517 7.016773,8.22181 1.6e-5,4 1.122719,11.84692 1.122719,11.84692 0,0.98667 -0.08849,4.03635 -0.575548,4.62767 -1.234127,1.49831 -1.41424,-1.34836 -2.703398,-2.22092 -0.375529,-0.53333 -2.048227,-0.25182 -2.454492,-0.0649 -2.32319,1.06892 -2.715681,1.89814 -4.827949,1.89814 m 5.625857,-10.75645 c -1.609117,-1.19661 -5.318022,0.65869 -5.903675,1.30824 -0.415508,0.46157 -0.988135,1.77887 -0.988135,2.60553 -0.142354,2.60708 1.455499,3.17457 3.045473,2.75308 2.548192,-0.6755 2.631189,-0.41293 3.311266,-2.10782 0.394066,-0.98209 1.526678,-3.50553 0.535071,-4.55903 z" />
        <path
           style="fill:#a0e88a;fill-opacity:1;stroke:none"
           sodipodi:nodetypes="ssssssssss"
           inkscape:connector-curvature="0"
           id="path3764"
           d="m 83.391623,275.63306 c -0.422679,2.51524 -4.003538,3.50781 -4.340254,1.25617 -0.467573,-3.12669 1.854114,-13.12472 0.537208,-20.20326 -0.564808,-3.03592 4.893232,-1.08468 5.300329,0.55594 0.621609,2.50511 -0.985611,15.34634 -1.497283,18.39115 z m 2.197258,-22.83394 c -1.319933,1.31993 -3.770003,0.8093 -5.089936,-0.51063 -1.178511,-1.17851 -1.712834,-2.52122 -0.534323,-3.69973 1.319933,-1.31993 3.091599,-1.76819 4.337563,-0.96697 1.709977,1.09961 2.465207,3.99882 1.286696,5.17733 z" />
        <path
           style="fill:#a0e88a;fill-opacity:1;stroke:none"
           sodipodi:nodetypes="sssss"
           inkscape:connector-curvature="0"
           id="path3766"
           d="m 93.726931,276.46465 c -0.196782,1.86263 -6.449475,3.98914 -5.6,0 1.423974,-6.68699 -0.370206,-26.10509 0,-29.16 0.224566,-1.85311 5.42889,-1.85881 5.6,0 0.967788,10.51333 0.334719,25.99174 0,29.16 z" />
        <path
           style="fill:#a0e88a;fill-opacity:1;stroke:none"
           sodipodi:nodetypes="ssssssssssssss"
           inkscape:connector-curvature="0"
           id="path3768"
           d="m 113.10994,277.86758 c -3.32864,-4.01637 -0.47269,-19.24037 -2.81988,-15.24 -2.53366,4.31817 0.54633,11.98811 -2.99395,15.24 -1.30522,1.1989 -4.19659,1.67517 -5.01312,0 -3.78959,-7.77453 -5.794726,-15.47422 -5.291638,-21.6 0.280656,-3.41739 3.427688,-0.53438 5.047938,0 0.76006,0.25068 -0.086,11.59438 2.50676,15.29482 2.12549,3.0335 -1.15186,-9.78781 3.4293,-14.50814 1.20951,-1.24625 4.25311,-1.72799 5.48573,-0.52445 4.58576,4.47756 -0.30994,16.95975 2.50098,15.46963 4.09464,-2.17064 1.23328,-13.57335 2.47433,-15.73186 0.92747,-1.61312 4.41624,-1.79192 5.04793,0 1.62107,4.59848 -1.74336,16.08746 -5.32644,21.6 -1.03721,1.59574 -4.19723,1.02648 -5.04794,0 z" />
        <path
           style="fill:#a0e88a;fill-opacity:1;stroke:none"
           sodipodi:nodetypes="ssssssssss"
           inkscape:connector-curvature="0"
           id="path3770"
           d="m 132.48706,276.90609 c 0.11061,3.45553 -2.95663,2.3969 -5.16296,0.17482 -1.05237,-1.05989 -3.18721,-9.85752 -0.26223,-21.07555 0.47425,-1.81886 6.5469,-1.96441 5.6,0.0874 -2.89122,6.26492 -0.3161,16.3992 -0.17481,20.81332 z m -0.26222,-25.20889 c -1.31993,1.31993 -3.4934,2.1066 -4.81333,0.78667 -1.17851,-1.17851 -0.91628,-2.86 0.26223,-4.03851 1.31993,-1.31993 3.5808,-1.66956 4.90073,-0.34963 1.17851,1.17851 0.82888,2.42296 -0.34963,3.60147 z" />
        <path
           style="fill:#a0e88a;fill-opacity:1;stroke:none"
           sodipodi:nodetypes="ssssssssssss"
           inkscape:connector-curvature="0"
           id="path3772"
           d="m 138.55693,255.74313 c 0.75593,3.89174 0.41188,-1.20817 4.99405,-0.27259 2.06338,0.4213 4.43917,2.3252 5.40442,6.4311 1.06141,4.51491 1.56279,8.94572 0.78668,15.35408 -0.229,1.89084 -6.71109,2.77376 -5.6,0 1.65101,-4.12161 1.20567,-9.50584 0.26223,-13.84445 -0.52446,-2.41183 -1.44744,-3.67918 -3.77482,-3.09332 -1.07803,0.27136 -1.12074,1.63138 -1.28589,4.06518 -0.30237,4.45608 2.36871,11.19256 0.61186,13.13482 -1.2522,1.38435 -3.4502,1.6214 -4.20147,-0.0874 -1.53693,-3.49589 -2.41705,-18.27419 -0.87408,-21.42518 1.57418,-3.21475 3.19119,-2.76337 3.67702,-0.26223 z" />
        <path
           style="fill:#a0e88a;fill-opacity:1;stroke:none"
           sodipodi:nodetypes="ccssssssccccccc"
           inkscape:connector-curvature="0"
           id="path3774"
           d="m 150.79951,267.30017 c 0.12867,-5.62873 3.61112,-11.38975 9.08,-11.48 2.61332,0 3.55109,0.87854 4.99851,1.93628 1.81552,1.32674 -2.6167,-6.86922 -0.17482,-9.3111 1.31993,-1.31993 4.23324,-1.40236 4.5511,0.43705 1.87432,10.84644 2.80131,25.52345 0,29.16 -1.13914,1.47878 -2.09486,1.0577 -3.41479,-0.26223 -0.51854,-0.51854 -0.17482,-2.02518 -0.17482,-2.02518 0,-2.49986 -0.51186,1.98916 -3.07552,2.33332 -8.45492,0.84938 -11.7274,-3.41241 -11.78966,-10.78814 z m 5.78369,-4.26814 c -1.40567,2.36725 -1.89227,4.42664 -0.26222,8.14665 1.9927,2.42597 5.16384,2.25285 6.8,0.04 1.64032,-3.04994 2.13237,-5.37091 0.26222,-8.18665 -2.00581,-2.50701 -5.17825,-2.26665 -6.8,0 z" />
      </g>
    </g>
  </g>
</svg>
